<svg xmlns="http://www.w3.org/2000/svg" xmlns:xlink="http://www.w3.org/1999/xlink" width="916" height="142.919" viewBox="0 0 916 142.919">
  <defs>
    <clipPath id="clip-path">
      <rect id="Rectángulo_456721" data-name="Rectángulo 456721" width="83.726" height="142.919" rx="23" fill="#c5a07a" stroke="#707070" stroke-width="1"/>
    </clipPath>
    <clipPath id="clip-path-2">
      <rect id="Rectángulo_456656" data-name="Rectángulo 456656" width="126.112" height="357.466" transform="translate(0 0)" fill="#c5a07a"/>
    </clipPath>
  </defs>
  <g id="Grupo_1191954" data-name="Grupo 1191954" transform="translate(-913.833 -499.85)">
    <rect id="Rectángulo_456720" data-name="Rectángulo 456720" width="916" height="141.653" rx="24" transform="translate(913.833 499.85)" fill="#f4ece4"/>
    <g id="Enmascarar_grupo_1119278" data-name="Enmascarar grupo 1119278" transform="translate(1745.833 499.85)" clip-path="url(#clip-path)">
      <g id="Grupo_1186682" data-name="Grupo 1186682" transform="translate(9.733 0)" opacity="0.23" style="isolation: isolate">
        <g id="Grupo_1186558" data-name="Grupo 1186558" transform="translate(0 0)" clip-path="url(#clip-path-2)">
          <path id="Trazado_1085386" data-name="Trazado 1085386" d="M122.8,264.413s-2.971,10.137-2.409,15.205,3.854,4.327,4.095,6.3-5.379,1.236-5.861,4.7,10.444,46.54.251,58.008-79.584,11.77-84.093.905S32.041,294,55.759,304.565s20.778,32.9,40.38,28.068,22.572-17.413,18.257-26.375,3.312-16.07,2.609-19.006-6.423.309-10.839.773,2.308,21.17-3.111,30.75-23.485,8.19-29.105-8.808-16.761-5.254-16.66-16.843,16.158-21.633,23.786-1.236,18.969,23.333,19.771,9.58,1.3-14.062,1.3-14.062-28.4-3.554-34.826-13.753S60.4,258.819,61.2,242.594s1.1-31.523-5.319-34.768S39.243,205.695,21.78,206-.1,194.724,0,178.19s3.914-24.853,9.033-24.016,1.606,23.385,8.029,32.74,18.467,2.247,29.908,8.428,13.75,14.216,13.75,14.216.8-17.461-12.044-20.706S24.089,184.834,19.472,173.4s-4.717-17.77-4.617-33.377.5-12.98.5-29.977-.8-38.322,5.921-43.421c0,0-1.606-27.814,7.326-44.039s39.944-12.207,47.07,3.09-6.323,33.84-26.5,24.878-25.693,2.318-26.195,8.5-.5,6.336-.5,6.336,10.237-7.417,27.2-4.79,26.5-4.327,30.711-15.761a117.265,117.265,0,0,0,5.62-23.963s-9.4.256-11.712-4.491,1.387-14.557,4.933-8.465c0,0-1.644-7.6,3.391-7.912S86.53,7.521,86.53,7.521,91.514-2.447,94.854.955s.976,8.624.976,8.624,6.423-.712,6.886,7.12-6.526,11.313-14.182,5.459c0,0,.888,25.113-11.8,35.249S50.481,62.97,50.963,66.184s5.781,2.6,10.679,7.046,15.175,1.36,20.875-11.249,9.123-22.591,21.919-30.124,19.445-21.633,21.327,2.318S122.627,91.348,93.4,85.553,58.269,84.2,53.753,74.93s-5.445-8.692-9.559-8.692-18.868-4.327-22.782,7.417-2.836,37.372-3.338,55.915.376,37.236,5.645,45.466,16.058,6.878,22.456,8.23a31.061,31.061,0,0,1,11.04,4.829s-2.353-10.724-12.149-9.611-21.272-12.207-22.056-29.591-4.548-65.914,6.116-68.086,7.684,26.076,7.684,51.427,13.8,18.591,20.7,33.56,1.611,24.733,1.611,24.733,5.1,4.237,4.471,20.849-1,35.347.125,45.777,4.391,15.259,16.936,20.474,21.7,4.443,27.349,4.443,11.542.193,11.542.193-2.509.579-3.011-8.692-12.42-9.465-29.356-6.567-26.847-23.565-18.692-32.45,45.289-2.318,52.314,7.726,2.005,22.133,2.005,22.133" transform="translate(0 0.004)" fill="#c5a07a" fill-rule="evenodd"/>
        </g>
      </g>
    </g>
  </g>
</svg>
