<svg xmlns="http://www.w3.org/2000/svg" xmlns:xlink="http://www.w3.org/1999/xlink" width="1228" height="157.086" viewBox="0 0 1228 157.086">
  <defs>
    <clipPath id="clip-path">
      <rect id="Rectángulo_456721" data-name="Rectángulo 456721" width="83.726" height="156.086" rx="23" fill="#f7faef" stroke="#707070" stroke-width="1"/>
    </clipPath>
    <clipPath id="clip-path-2">
      <rect id="Rectángulo_456656" data-name="Rectángulo 456656" width="126.112" height="296.106" transform="translate(0 0)" fill="#b3c867"/>
    </clipPath>
  </defs>
  <g id="Grupo_1192521" data-name="Grupo 1192521" transform="translate(-1017.833 -557.85)">
    <rect id="Rectángulo_456720" data-name="Rectángulo 456720" width="1228" height="156.087" rx="24" transform="translate(1017.833 558.85)" fill="#f7faef"/>
    <g id="Enmascarar_grupo_1119278" data-name="Enmascarar grupo 1119278" transform="translate(2157.833 557.85)" clip-path="url(#clip-path)">
      <g id="Grupo_1186682" data-name="Grupo 1186682" transform="translate(9.733 -18.364)" opacity="0.23" style="isolation: isolate">
        <g id="Grupo_1186558" data-name="Grupo 1186558" transform="translate(0 0)" clip-path="url(#clip-path-2)">
          <path id="Trazado_1085386" data-name="Trazado 1085386" d="M122.8,219.025s-2.971,8.4-2.409,12.6,3.854,3.584,4.095,5.222-5.379,1.024-5.861,3.891,10.444,38.551.251,48.051-79.584,9.75-84.093.75-2.744-46,20.974-37.25,20.778,27.25,40.38,23.25,22.572-14.424,18.257-21.848,3.312-13.312,2.609-15.744-6.423.256-10.839.64,2.308,17.536-3.111,25.472-23.485,6.784-29.105-7.3-16.761-4.352-16.66-13.952,16.158-17.92,23.786-1.024,18.969,19.328,19.771,7.936,1.3-11.648,1.3-11.648-28.4-2.944-34.826-11.392S60.4,214.391,61.2,200.952s1.1-26.112-5.319-28.8-16.641-1.766-34.1-1.51S-.1,161.3,0,147.6s3.914-20.587,9.033-19.893,1.606,19.371,8.029,27.12,18.467,1.861,29.908,6.981,13.75,11.776,13.75,11.776.8-14.464-12.044-17.152-24.589-3.328-29.205-12.8-4.717-14.72-4.617-27.648.5-10.752.5-24.832-.8-31.744,5.921-35.968c0,0-1.606-23.04,7.326-36.48S68.549,8.6,75.675,21.268,69.352,49.3,49.179,41.876s-25.693,1.92-26.195,7.04-.5,5.248-.5,5.248S32.72,48.02,49.681,50.2s26.5-3.584,30.711-13.056a83.14,83.14,0,0,0,5.62-19.85s-9.4.212-11.712-3.72,1.387-12.058,4.933-7.012c0,0-1.644-6.291,3.391-6.554S86.53,6.23,86.53,6.23,91.514-2.028,94.854.79s.976,7.143.976,7.143,6.423-.59,6.886,5.9S96.191,23.2,88.534,18.353c0,0,.888,20.8-11.8,29.2s-26.255,4.608-25.773,7.27,5.781,2.15,10.679,5.837,15.175,1.126,20.875-9.318,9.123-18.713,21.919-24.953,19.445-17.92,21.327,1.92S122.627,75.667,93.4,70.867s-35.127-1.12-39.643-8.8-5.445-7.2-9.559-7.2-18.868-3.584-22.782,6.144-2.836,30.957-3.338,46.317.376,30.844,5.645,37.662,16.058,5.7,22.456,6.818a34.283,34.283,0,0,1,11.04,4s-2.353-8.883-12.149-7.962-21.272-10.112-22.056-24.512-4.548-54.6,6.116-56.4,7.684,21.6,7.684,42.6,13.8,15.4,20.7,27.8,1.611,20.488,1.611,20.488,5.1,3.51,4.471,17.27-1,29.28.125,37.92,4.391,12.64,16.936,16.96,21.7,3.68,27.349,3.68,11.542.16,11.542.16-2.509.48-3.011-7.2-12.42-7.84-29.356-5.44-26.847-19.52-18.692-26.88,45.289-1.92,52.314,6.4,2.005,18.334,2.005,18.334" transform="translate(0 0.004)" fill="#b3c867" fill-rule="evenodd"/>
        </g>
      </g>
    </g>
  </g>
</svg>
