<svg xmlns="http://www.w3.org/2000/svg" xmlns:xlink="http://www.w3.org/1999/xlink" width="604" height="204.566" viewBox="0 0 604 204.566">
  <defs>
    <clipPath id="clip-path">
      <rect id="Rectángulo_456721" data-name="Rectángulo 456721" width="103.726" height="160.566" rx="23" fill="#c5a07a" stroke="#707070" stroke-width="1"/>
    </clipPath>
    <clipPath id="clip-path-2">
      <rect id="Rectángulo_456656" data-name="Rectángulo 456656" width="195.942" height="401.606" transform="translate(0 0)" fill="#c5a07a"/>
    </clipPath>
  </defs>
  <g id="Grupo_1192538" data-name="Grupo 1192538" transform="translate(-997.833 -499.85)">
    <rect id="Rectángulo_456720" data-name="Rectángulo 456720" width="604" height="204.566" rx="24" transform="translate(997.833 499.85)" fill="#f4ece4"/>
    <g id="Enmascarar_grupo_1119278" data-name="Enmascarar grupo 1119278" transform="translate(1497.833 543.85)" clip-path="url(#clip-path)">
      <g id="Grupo_1186682" data-name="Grupo 1186682" transform="translate(12.058 0)" opacity="0.23" style="isolation: isolate">
        <g id="Grupo_1186558" data-name="Grupo 1186558" transform="translate(0 0)" clip-path="url(#clip-path-2)">
          <path id="Trazado_1085386" data-name="Trazado 1085386" d="M190.8,297.063s-4.616,11.388-3.742,17.083,5.988,4.861,6.362,7.083-8.358,1.389-9.107,5.278,16.226,52.286.389,65.171S61.051,404.9,54.046,392.694s-4.264-62.388,32.588-50.521,32.283,36.958,62.739,31.533,35.07-19.563,28.365-29.632,5.146-18.055,4.054-21.353-9.98.347-16.841.868,3.586,23.784-4.834,34.547-36.489,9.2-45.221-9.9-26.041-5.9-25.885-18.923,25.105-24.3,36.956-1.389,29.472,26.214,30.719,10.763,2.027-15.8,2.027-15.8S114.585,318.9,104.6,307.444s-10.759-16.666-9.512-34.894,1.715-35.415-8.264-39.061-25.856-2.4-52.988-2.048S-.153,218.768,0,200.193s6.081-27.921,14.034-26.981,2.495,26.273,12.475,36.783,28.692,2.524,46.468,9.468,21.363,15.971,21.363,15.971,1.247-19.617-18.712-23.263-38.2-4.513-45.377-17.36-7.329-19.965-7.173-37.5.78-14.583.78-33.679-1.248-43.054,9.2-48.782c0,0-2.495-31.249,11.383-49.477s62.062-13.715,73.133,3.472S107.753,66.866,76.41,56.8s-39.919,2.6-40.7,9.548-.78,7.118-.78,7.118S50.837,65.13,77.19,68.081s41.166-4.861,47.716-17.708a101.614,101.614,0,0,0,8.732-26.922s-14.6.287-18.2-5.046,2.156-16.355,7.664-9.511c0,0-2.555-8.533,5.269-8.889s6.068,8.444,6.068,8.444,7.744-11.2,12.934-7.377,1.517,9.688,1.517,9.688,9.98-.8,10.7,8-10.139,12.71-22.035,6.133c0,0,1.379,28.213-18.331,39.6s-40.792,6.25-40.044,9.861,8.982,2.917,16.591,7.916S119.35,83.8,128.207,69.635s14.174-25.381,34.056-33.844,30.212-24.3,33.136,2.6-4.873,64.233-50.289,57.723S90.533,94.6,83.516,84.182s-8.459-9.765-14.853-9.765-29.316-4.861-35.4,8.333-4.407,41.987-5.187,62.819.585,41.833,8.771,51.08,24.949,7.728,34.89,9.247a58.093,58.093,0,0,1,17.153,5.425s-3.657-12.048-18.876-10.8-33.05-13.715-34.268-33.245-7.066-74.052,9.5-76.494,11.939,29.3,11.939,57.777,21.441,20.887,32.161,37.7,2.5,27.787,2.5,27.787,7.921,4.761,6.946,23.423-1.559,39.712.195,51.43,6.822,17.143,26.314,23S159.03,316.9,167.8,316.9s17.932.217,17.932.217-3.9.651-4.678-9.765-19.3-10.633-45.611-7.378S93.733,273.5,106.4,263.517s70.365-2.6,81.28,8.68,3.116,24.866,3.116,24.866" transform="translate(0 0.004)" fill="#c5a07a" fill-rule="evenodd"/>
        </g>
      </g>
    </g>
  </g>
</svg>
