<svg xmlns="http://www.w3.org/2000/svg" xmlns:xlink="http://www.w3.org/1999/xlink" width="1328" height="381" viewBox="0 0 1328 381">
  <defs>
    <clipPath id="clip-path">
      <rect id="Rectángulo_459562" data-name="Rectángulo 459562" width="1328" height="381" rx="24" fill="#fff" stroke="#707070" stroke-width="1"/>
    </clipPath>
    <clipPath id="clip-path-2">
      <rect id="Rectángulo_459558" data-name="Rectángulo 459558" width="445.314" height="897.057" transform="translate(0 0)" fill="#fec190"/>
    </clipPath>
    <clipPath id="clip-path-3">
      <rect id="Rectángulo_459559" data-name="Rectángulo 459559" width="459.018" height="897.057" transform="translate(0 0)" fill="#fec190"/>
    </clipPath>
    <clipPath id="clip-path-4">
      <rect id="Rectángulo_459560" data-name="Rectángulo 459560" width="283.228" height="367.21" transform="translate(0 0)" fill="#c5a07a"/>
    </clipPath>
    <clipPath id="clip-path-5">
      <rect id="Rectángulo_459561" data-name="Rectángulo 459561" width="722.128" height="1120.953" transform="translate(0 0)" fill="#fec190"/>
    </clipPath>
  </defs>
  <g id="Enmascarar_grupo_1119395" data-name="Enmascarar grupo 1119395" clip-path="url(#clip-path)">
    <path id="Trazado_1091537" data-name="Trazado 1091537" d="M0,0H1443.878V612.512H0Z" transform="translate(-93.605 0.458)" fill="#fff9f5"/>
    <path id="Trazado_1091538" data-name="Trazado 1091538" d="M354.312,0C549.993,0,708.624,173.574,708.624,387.689S549.993,775.378,354.312,775.378,0,601.8,0,387.689,158.631,0,354.312,0Z" transform="translate(104.167 556.949)" fill="#fec190" opacity="0.23" style="mix-blend-mode: multiply;isolation: isolate"/>
    <g id="Grupo_1190497" data-name="Grupo 1190497" transform="translate(-272.833 -340.108)" opacity="0.38" style="mix-blend-mode: color-dodge;isolation: isolate">
      <g id="Grupo_1190496" data-name="Grupo 1190496" transform="translate(0 0)" clip-path="url(#clip-path-2)">
        <path id="Trazado_1091539" data-name="Trazado 1091539" d="M11.688,663.547s10.49,25.438,8.505,38.157S6.585,712.561,5.735,717.524s19,3.1,20.7,11.788S-10.446,846.1,25.546,874.884s281.019,29.537,296.939,2.272,9.69-139.356-74.062-112.848-73.37,82.553-142.586,70.436-79.7-43.7-64.466-66.188-11.695-40.329-9.214-47.7,22.681.776,38.274,1.939-8.151,53.125,10.986,77.167,82.927,20.552,102.773-22.1,59.183-13.184,58.828-42.267-57.057-54.288-83.99-3.1-66.98,58.554-69.815,24.042-4.607-35.287-4.607-35.287S184.9,712.328,207.58,686.735s24.453-37.226,21.618-77.942-3.9-79.106,18.783-87.249,58.762-5.35,120.426-4.575,77.257-28.307,76.9-69.8S431.487,384.8,413.413,386.9s-5.67,58.684-28.351,82.16-65.207,5.639-105.608,21.149S230.9,525.889,230.9,525.889s-2.835-43.818,42.527-51.962,86.825-10.082,103.127-38.777,16.656-44.594,16.3-83.759-1.772-32.573-1.772-75.228S393.922,180,370.178,167.2c0,0,5.67-69.8-25.87-110.515S203.261,26.05,178.1,64.44s22.327,84.922,93.558,62.431,90.723,5.816,92.5,21.327,1.772,15.9,1.772,15.9-36.147-18.613-96.039-12.021-93.558-10.858-108.443-39.553S141.6,52.388,141.6,52.388s33.19.641,41.356-11.271-4.9-36.531-17.419-21.244c0,0,5.806-19.06-11.976-19.854s-13.79,18.861-13.79,18.861S122.168-6.135,110.374,2.4s-3.448,21.641-3.448,21.641S84.246,22.256,82.613,41.912s23.044,28.391,50.079,13.7c0,0-3.134,63.02,41.661,88.457s92.708,13.96,91.007,22.026-20.413,6.515-37.707,17.682-53.584,3.412-73.713-28.23-32.214-56.693-77.4-75.6S7.879,25.661,1.234,85.766,12.309,229.242,115.524,214.7s124.036-3.393,139.983-26.66,19.226-21.812,33.755-21.812,66.625-10.858,80.446,18.613,10.015,93.785,11.787,140.318-1.329,93.442-19.934,114.1-56.7,17.261-79.295,20.654a133.6,133.6,0,0,0-38.983,12.118s8.31-26.911,42.9-24.12,75.112-30.634,77.881-74.258,16.058-165.409-21.6-170.862-27.133,65.436-27.133,129.055-48.729,46.654-73.093,84.219-5.688,62.068-5.688,62.068-18,10.634-15.786,52.319,3.544,88.7-.443,114.877-15.5,38.293-59.8,51.38-76.637,11.148-96.571,11.148-40.755.485-40.755.485,8.86,1.454,10.632-21.812,43.855-23.751,103.658-16.48,94.8-59.135,66-81.432S43.576,582.8,18.769,608s-7.081,55.542-7.081,55.542" transform="translate(0 0.004)" fill="#fec190" fill-rule="evenodd"/>
      </g>
    </g>
    <g id="Grupo_1190499" data-name="Grupo 1190499" transform="translate(1234.658 -262.42)" opacity="0.38" style="mix-blend-mode: color-dodge;isolation: isolate">
      <g id="Grupo_1190498" data-name="Grupo 1190498" transform="translate(0 0)" clip-path="url(#clip-path-3)">
        <path id="Trazado_1091540" data-name="Trazado 1091540" d="M446.97,663.547S436.157,688.984,438.2,701.7s14.027,10.858,14.9,15.821-19.58,3.1-21.333,11.788,38.012,116.791.912,145.571-289.667,29.537-306.077,2.272S116.621,737.8,202.95,764.308s75.627,82.553,146.974,70.436,82.157-43.7,66.449-66.188,12.055-40.329,9.5-47.7-23.379.776-39.452,1.939,8.4,53.125-11.324,77.167-85.479,20.552-105.935-22.1-61-13.184-60.639-42.267,58.812-54.288,86.575-3.1,69.041,58.554,71.963,24.042,4.749-35.287,4.749-35.287-103.378-8.919-126.757-34.512-25.205-37.226-22.283-77.942,4.018-79.106-19.361-87.249-60.57-5.35-124.132-4.575S-.359,488.662.006,447.171,14.253,384.8,32.882,386.9s5.845,58.684,29.224,82.16,67.214,5.639,108.858,21.149,50.046,35.675,50.046,35.675,2.922-43.818-43.835-51.962-89.5-10.082-106.3-38.777S53.7,390.556,54.07,351.391,55.9,318.818,55.9,276.163,52.974,180,77.448,167.2c0,0-5.844-69.8,26.667-110.515S249.5,26.05,275.438,64.44,252.424,149.362,179,126.871,85.485,132.687,83.658,148.2s-1.827,15.9-1.827,15.9,37.26-18.613,98.995-12.021,96.438-10.858,111.78-39.553,20.456-60.135,20.456-60.135-34.212.641-42.628-11.271,5.05-36.531,17.955-21.244c0,0-5.985-19.06,12.344-19.854s14.214,18.861,14.214,18.861S333.09-6.135,345.247,2.4,348.8,24.043,348.8,24.043s23.379-1.787,25.062,17.869S350.11,70.3,322.242,55.61c0,0,3.231,63.02-42.943,88.457s-95.561,13.96-93.807,22.026,21.041,6.515,38.867,17.682,55.233,3.412,75.981-28.23,33.205-56.693,79.78-75.6,70.776-54.288,77.625,5.817S446.33,229.242,339.938,214.7s-127.853-3.393-144.291-26.66-19.817-21.812-34.794-21.812-68.676-10.858-82.922,18.613-10.324,93.785-12.15,140.318,1.37,93.442,20.548,114.1,58.447,17.261,81.735,20.654a140.648,140.648,0,0,1,40.182,12.118s-8.566-26.911-44.219-24.12S86.6,417.275,83.749,373.65,67.2,208.241,106.009,202.788s27.968,65.436,27.968,129.055S184.2,378.5,209.319,416.063s5.863,62.068,5.863,62.068,18.555,10.634,16.272,52.319-3.653,88.7.457,114.877,15.982,38.293,61.643,51.38,78.995,11.148,99.543,11.148,42.009.485,42.009.485-9.132,1.454-10.959-21.812-45.2-23.751-106.848-16.48-97.716-59.135-68.036-81.432S414.1,582.8,439.671,608s7.3,55.542,7.3,55.542" transform="translate(0 0.004)" fill="#fec190" fill-rule="evenodd"/>
      </g>
    </g>
    <path id="Trazado_1091541" data-name="Trazado 1091541" d="M354.312,0C549.993,0,708.624,173.574,708.624,387.689S549.993,775.378,354.312,775.378,0,601.8,0,387.689,158.631,0,354.312,0Z" transform="translate(-44.972 -657.05)" fill="#fec190" opacity="0.23" style="mix-blend-mode: multiply;isolation: isolate"/>
    <g id="Grupo_1190501" data-name="Grupo 1190501" transform="translate(-1698.389 -1601.641) rotate(-90)">
      <g id="Grupo_1190500" data-name="Grupo 1190500" transform="translate(0 0)" clip-path="url(#clip-path-4)">
        <path id="Trazado_1091542" data-name="Trazado 1091542" d="M250.117,235.59c-30.455,12.7-22.471,70.8-2.365,85.93s18.767,24.162,2.872,24.854-16.8,5.811-19.68,5.672,1.8-40.436-5.291-65.026c-5.806-20.119-6.071-37.343-26.217-43.978q.241-.357.454-.693c6.564-10.376,6.57-14.7,28.08-15.313s41.912-4.053,49.23-30.6,8.649-54.314.222-55.125-65.64,83.093-69.41,85.12,3.1-20.672,7.762-27.157,15.468-14.795,29.327-31.514,44.906-74.733,29.106-96.52-51.559,30.653-51.836,64.6-8.072,63.3-10.2,63.951,4.08-41.182,1.6-58.854-4.08-51.072,2.129-50.91,18.273-2.756,18.1-9.079a6.935,6.935,0,0,0-.609-2.644c22.476-11.455,49.194-50.941,47.413-61.318C278.9,5.959,269.913,10.715,259.978,7.9S242,2.5,242,17.2,233.485,61.732,226.389,60s2.129-28.319,1.419-43.019S220-1.607,214.562.554s-17.5-1.946-25.546,1.729-4.258,32.643.237,44.867-9.462,9.394-11.117-8.981-5.79-32.452-12.3-30.239-8.127-4.886-22.083.735S135,28.554,146.59,50.82c8.97,17.231,27.087,26.849,34.822,30.318-1.535.638-2.688,1.648-2.794,3.239-.341,5.084,10.213,3.272,10.213,3.272s16.854-2.409,18.45,7.713-.03,101.723-.03,101.723-5.766-5-6.83-30.288-2.661-51.882-18.628-64.691-11.354,40.047-1.951,62.745S191.2,188.522,200.421,196.3s6.032,24.32-3.193,39.56c-1.192,1.969-2.458,3.843-3.782,5.641a76.662,76.662,0,0,0-10.667-1.233c-27.636-1.414-59.9,2.006-81.59,2.353,1.123-4.678,3.425-8.1,7.73-9.392,9.689-2.905,25.1-1.909,51.443-1.632s33-10.1,32.851-24.9-5.9-22.252-13.625-21.5-2.422,20.938-12.111,29.314-27.855,2.012-45.113,7.546-20.74,12.729-20.74,12.729-1.211-15.634,18.166-18.539,37.09-3.6,44.053-13.835,7.115-15.911,6.964-29.884-.757-11.622-.757-26.84,1.211-34.312-8.932-38.877c0,0,2.422-24.9-11.051-39.431s-60.252-10.93-71,2.767,9.537,30.3,39.966,22.275,38.755,2.075,39.512,7.609.757,5.672.757,5.672-15.441-6.641-41.026-4.289S78.31,97.537,71.951,87.3a70.758,70.758,0,0,1-8.478-21.456s14.178.229,17.666-4.021a5.026,5.026,0,0,0,1.08-3.4c29.885-5.661,38.4-24.7,41.652-34,3.482-9.962-4.39-10.376-9.386-13.559s-9.84,0-16.385-3.32S86.177,16.124,85.117,27.054s-3.633,18.539-7.267,17.294-2.271-9.685-.757-28.362S65.437.213,59.684,1.873,42.578-3.661,39.7,9.068s8.023,36.94,4.087,39.154-10.6-12.313-11.808-21.03-6.964-8.163-10.6-7.056-6.358-1.245-11.808.415S5.639,45.04,14.42,56.384c6.313,8.156,18.061,8.687,24.167,8.341,1.864,5.082,11.1,6.8,21.083,2.268,0,0-1.339,22.485,17.8,31.561s39.6,4.981,38.876,7.859-8.72,2.324-16.108,6.309-22.89,1.217-31.488-10.072S54.985,82.422,35.684,75.677,6.353,56.307,3.514,77.752s4.731,51.191,48.822,46,52.985-1.211,59.8-9.512,8.213-7.782,14.42-7.782,28.461-3.874,34.365,6.641,4.278,33.461,5.035,50.064-.568,33.339-8.515,40.708-24.222,6.159-33.873,7.369a65.131,65.131,0,0,0-16.652,4.324s3.55-9.6,18.325-8.606,32.086-10.93,33.269-26.495,6.86-59.016-9.225-60.962-11.59,23.347-11.59,46.046S116.876,182.2,106.468,195.6s-2.43,22.145-2.43,22.145-7.69,3.794-6.743,18.667c.131,2.053.254,4.142.365,6.243a75.716,75.716,0,0,1-14.229-1.03c-17.149-3.513-19.174-36.836-16.752-40.3s15.744,3.459,20.74-1.107a6.155,6.155,0,0,0,2.065-5.438c19.453-5.307,35.974-22.449,40.067-29.813,4.844-8.716,3.33-14.8-1.211-21.168s-7.569-2.075-14.079-6.779-16.047-3.6-16.161,11.345-7.3,25.18-11.542,26.01-5.753-2.767-1.968-14.8,1.817-25.872-1.817-27.809-11.051-3.32-18.166-1.384-2.574-.415-12.717.692-9.386,9.685-8.932,21.86,8.175,22.136,2.725,22.413-6.964-24.765-10.9-29.607-10.143-5.257-13.473-3.459-4.542,0-10.143,3.044-4.39,20.753,10.9,34.588c9.63,8.713,17.7,12.268,22.351,13.706a4.747,4.747,0,0,0-.3,3.7c1.665,6.641,18.469.11,18.62,6.558S62.168,225.3,67.5,234.159s11.748,7.526,11.142,10.072S56.6,242.682,49.694,236.7,33.821,179.876,11.87,184.2s-9.84,59.319,7.191,66.755,56.581-4.669,68.5-3.459A86.523,86.523,0,0,0,97.9,247.7c.482,11.455.485,22.674-.8,29.693-1.7,9.339-6.623,13.662-25.546,18.332s-32.737,3.978-41.253,3.978c-7.52,0-15.333.135-17.058.166a1.565,1.565,0,0,1-.352.007l.352-.007c.956-.107,3.574-1.025,4.19-7.776.757-8.3,18.734-8.474,44.28-5.88s40.5-21.1,28.2-29.054S21.6,255.088,11,264.081,7.98,283.9,7.98,283.9s4.481,9.076,3.633,13.614-5.813,3.874-6.177,5.645,8.114,1.107,8.841,4.206S-1.476,349.032,13.9,359.3s120.044,10.539,126.845.811,4.139-49.721-31.637-40.263S77.766,349.3,48.2,344.979,14.15,329.388,20.66,321.364s-5-14.389-3.936-17.018,9.689.277,16.35.692-3.482,18.954,4.693,27.532,35.424,7.333,43.9-7.886,25.281-4.7,25.13-15.08S82.426,290.234,70.92,308.5,42.308,329.388,41.1,317.075s-1.968-12.59-1.968-12.59S81.971,301.3,91.66,292.171s10.446-13.282,9.235-27.809a107.325,107.325,0,0,1-.462-16.738c14.546-.545,35.693-2.618,55.822-3.759,13.086-.742,24.924-1.131,34.652.918-8.5,10.449-18.76,18.439-27.031,28.048-7.985,9.277-10.085,15.723-10.789,28.482-4.294-2.542-12.06-9.161-8.564-22.579,4.731-18.159,25.736-17.467,24.032-24.212s-37.657-9.339-49.39,9.166-5.488,42.2,14.382,41.16c11.405-.6,16.825-.166,19.372.309-.1,3.02-.161,6.374-.219,10.152-.355,23.023-1.6,47.018,3.371,47.829s2.484-12.322,2.484-24.158-1.6-45.4,2.661-52.693c3.773-6.465,26.07-27.823,35.668-39.824a28.09,28.09,0,0,1,17.278,16.6c8.516,20.753,8.407,27.813,8.461,34.66,0,0,4.542,55.86,3.785,58.281s-12.679-1.556-12.489-22.309-2.46-70.041-13.814-70.733-35.2,16.6-27.817,46.348,24.411,16.084,29.142,35.107,22.264,13.167,24.2,16.443,4.747,3.542,4.36-.974,8.5-10.1,17.393-4.22,22.708,12.279,28.953-2.767,4.237-130.008-26.218-117.308" transform="translate(0 0)" fill="#c5a07a" fill-rule="evenodd"/>
      </g>
    </g>
    <g id="Grupo_1190503" data-name="Grupo 1190503" transform="translate(605.523 -39.388)" opacity="0.05">
      <g id="Grupo_1190502" data-name="Grupo 1190502" transform="translate(0 0)" clip-path="url(#clip-path-5)">
        <path id="Trazado_1091543" data-name="Trazado 1091543" d="M637.707,719.167c-77.648,38.77-57.294,216.119-6.031,262.313s47.849,73.758,7.322,75.869-42.844,17.738-50.177,17.316,4.6-123.435-13.491-198.5c-14.8-61.415-15.479-113.994-66.844-134.247q.614-1.09,1.158-2.115c16.736-31.675,16.75-44.888,71.594-46.744S688.1,680.685,706.755,599.64s22.051-165.8.566-168.276S539.962,685.016,530.35,691.2s7.916-63.1,19.789-82.9,39.437-45.162,74.774-96.2,114.493-228.132,74.209-294.638-131.456,93.572-132.162,197.2S546.38,607.9,540.952,609.88s10.4-125.712,4.071-179.66-10.4-155.9,5.428-155.408,46.589-8.414,46.136-27.716a24.7,24.7,0,0,0-1.552-8.07c57.306-34.969,125.427-155.5,120.886-187.181C711.1,18.19,688.178,32.708,662.849,24.129s-45.835-16.5-45.835,28.376-21.711,135.94-39.8,130.661,5.428-86.448,3.619-131.321-19.9-56.752-33.773-50.153-44.629-5.939-65.134,5.279-10.855,99.646.6,136.961-24.124,28.676-28.345-27.416-14.764-99.065-31.361-92.307-20.722-14.914-56.3,2.244S344.2,87.163,373.75,155.134c22.869,52.6,69.061,81.959,88.784,92.548-3.913,1.947-6.853,5.031-7.125,9.887-.869,15.521,26.04,9.989,26.04,9.989s42.97-7.353,47.041,23.544-.076,310.521-.076,310.521-14.7-15.25-17.414-92.459-6.785-158.378-47.494-197.477-28.948,122.248-4.975,191.538,28.949,72.26,52.469,96.016,15.379,74.24-8.142,120.763c-3.039,6.011-6.268,11.731-9.643,17.218a164.764,164.764,0,0,0-27.2-3.763c-70.462-4.318-152.725,6.123-208.025,7.182,2.864-14.281,8.732-24.729,19.708-28.67,24.7-8.869,64-5.827,131.161-4.982s84.144-30.831,83.757-76.021-15.053-67.927-34.738-65.639S451.705,629.245,427,654.814s-71.02,6.141-115.022,23.035S259.1,716.7,259.1,716.7s-3.088-47.724,46.318-56.594,94.565-10.981,112.32-42.234,18.141-48.569,17.755-91.225-1.93-35.477-1.93-81.934,3.088-104.74-22.773-118.677c0,0,6.175-76.021-28.177-120.367S229,172.308,201.591,214.12s24.317,92.492,101.9,68,98.811,6.335,100.741,23.229,1.93,17.316,1.93,17.316-39.37-20.272-104.6-13.092-101.9-11.825-118.109-43.079-21.615-65.5-21.615-65.5,36.149.7,45.042-12.275a17.459,17.459,0,0,0,2.754-10.38c76.2-17.28,97.915-75.413,106.2-103.779,8.878-30.409-11.193-31.675-23.931-41.389s-25.089,0-41.777-10.136-30.4,26.185-33.1,59.55-9.264,56.594-18.527,52.793-5.789-29.564-1.93-86.58S166.84.651,152.173,5.719s-43.616-16.894-50.949,21.962S121.681,140.445,111.645,147.2s-27.018-37.588-30.106-64.2S63.784,58.089,54.52,61.468s-16.211-3.8-30.106,1.267S14.378,137.489,36.765,172.12c16.095,24.9,46.05,26.517,61.618,25.461,4.752,15.515,28.29,20.76,53.753,6.923,0,0-3.413,68.637,45.374,96.342s100.972,15.2,99.119,23.989-22.233,7.1-41.068,19.259-58.36,3.716-80.284-30.746-35.086-61.746-84.3-82.335S16.2,171.885,8.96,237.348,21.021,393.613,133.438,377.776s135.093-3.7,152.462-29.036,20.939-23.757,36.764-23.757,72.564-11.825,87.617,20.272S421.19,447.4,423.12,498.081s-1.447,101.772-21.711,124.267-61.757,18.8-86.363,22.5a145.507,145.507,0,0,0-42.458,13.2s9.051-29.31,46.723-26.27,81.808-33.365,84.824-80.878,17.49-180.154-23.521-186.093-29.551,71.27-29.551,140.56-53.072,50.813-79.608,91.727-6.195,67.6-6.195,67.6-19.606,11.582-17.193,56.983c.333,6.266.647,12.643.931,19.056-14.69-.018-27.072-.886-36.278-3.143-43.724-10.723-48.887-112.448-42.711-123.006s40.142,10.559,52.879-3.379a20.964,20.964,0,0,0,5.265-16.6c49.6-16.2,91.722-68.528,102.157-91.009,12.351-26.607,8.491-45.19-3.088-64.618s-19.3-6.335-35.9-20.695S250.412,407.3,250.121,452.91s-18.621,76.866-29.429,79.4-14.667-8.447-5.018-45.19,4.632-78.978-4.632-84.89-28.176-10.136-46.317-4.223-6.562-1.267-32.422,2.112-23.93,29.564-22.773,66.73,20.843,67.574,6.948,68.419-17.755-75.6-27.791-90.38-25.86-16.049-34.352-10.559-11.579,0-25.861,9.291S17.281,506.97,56.265,549.2c24.552,26.6,45.12,37.448,56.986,41.838-1.319,2.645-1.8,6.284-.754,11.289,4.246,20.272,47.09.336,47.475,20.018s-1.467,65.421,12.12,92.451,29.952,22.975,28.408,30.746-56.2-4.73-73.8-22.975S86.231,549.095,30.264,562.293,5.176,743.371,48.6,766.072s144.26-14.254,174.656-10.558c6.766.823,15.735.964,26.357.636,1.229,34.968,1.236,69.216-2.028,90.641C243.241,875.3,230.7,888.5,182.449,902.75S98.981,914.892,77.27,914.892c-19.172,0-39.093.412-43.491.508a3.339,3.339,0,0,1-.9.02l.9-.02c2.438-.327,9.114-3.128,10.683-23.737,1.93-25.34,47.765-25.868,112.9-17.949s103.249-64.407,71.889-88.691S55.076,778.688,28.058,806.14s-7.712,60.493-7.712,60.493,11.425,27.705,9.264,41.558-14.822,11.826-15.748,17.231S34.55,928.8,36.4,938.261s-40.165,127.2-.964,158.548,306.07,32.17,323.409,2.474S369.4,947.505,278.184,976.376s-79.91,89.912-155.3,76.714S36.078,1005.5,52.675,981,39.938,937.079,42.64,929.054s24.7.845,41.686,2.112-8.877,57.861,11.966,84.046,90.319,22.384,111.934-24.074S272.684,976.779,272.3,945.1s-62.143-59.127-91.477-3.379-72.95,63.773-76.038,26.185-5.018-38.433-5.018-38.433S209,919.763,233.7,891.889s26.632-40.545,23.545-84.89c-1.264-18.152-2.2-35.878-1.179-51.1,37.086-1.665,91-7.991,142.327-11.476,33.365-2.266,63.547-3.451,88.349,2.8-21.659,31.9-47.83,56.288-68.919,85.621-20.359,28.319-25.713,48-27.509,86.946-10.949-7.76-30.749-27.966-21.836-68.925,12.062-55.432,65.616-53.32,61.274-73.909s-96.012-28.508-125.926,27.98-13.992,128.814,36.668,125.646c29.079-1.818,42.9-.506,49.392.943-.262,9.217-.411,19.458-.559,30.991-.9,70.28-4.071,143.53,8.594,146s6.333-37.615,6.333-73.744-4.071-138.58,6.785-160.852c9.619-19.735,66.47-84.933,90.941-121.569,19.736,8.593,34.922,24.029,44.052,50.667,21.712,63.351,21.435,84.9,21.573,105.8,0,0,11.579,170.52,9.649,177.911s-32.326-4.751-31.843-68.1-6.272-213.809-35.221-215.921S420.448,853.4,439.264,944.2s62.239,49.1,74.3,107.169,56.766,40.194,61.706,50.195,12.1,10.812,11.116-2.973,21.669-30.831,44.345-12.881,57.9,37.483,73.819-8.447,10.8-396.865-66.845-358.1" transform="translate(0 0)" fill="#fec190" fill-rule="evenodd"/>
      </g>
    </g>
  </g>
</svg>
