<svg xmlns="http://www.w3.org/2000/svg" xmlns:xlink="http://www.w3.org/1999/xlink" width="916" height="125.618" viewBox="0 0 916 125.618">
  <defs>
    <clipPath id="clip-path">
      <rect id="Rectángulo_456721" data-name="Rectángulo 456721" width="135" height="116.1" rx="23" fill="#f7faef" stroke="#707070" stroke-width="1"/>
    </clipPath>
    <clipPath id="clip-path-2">
      <rect id="Rectángulo_456656" data-name="Rectángulo 456656" width="203.345" height="231.678" transform="translate(0 0)" fill="#b3c867"/>
    </clipPath>
  </defs>
  <g id="Grupo_1190541" data-name="Grupo 1190541" transform="translate(-601.833 -445.85)">
    <rect id="Rectángulo_456720" data-name="Rectángulo 456720" width="916" height="125.617" rx="24" transform="translate(601.833 445.85)" fill="#f7faef"/>
    <g id="Enmascarar_grupo_1119278" data-name="Enmascarar grupo 1119278" transform="translate(1382.833 455.368)" clip-path="url(#clip-path)">
      <g id="Grupo_1186682" data-name="Grupo 1186682" transform="translate(51.167 -24.618)" opacity="0.23" style="isolation: isolate">
        <g id="Grupo_1186558" data-name="Grupo 1186558" transform="translate(0 0)" clip-path="url(#clip-path-2)">
          <path id="Trazado_1085386" data-name="Trazado 1085386" d="M198.008,171.368s-4.79,6.57-3.884,9.855,6.214,2.8,6.6,4.086-8.674.8-9.451,3.045,16.839,30.163.4,37.6-128.322,7.628-135.592.587-4.425-35.991,33.819-29.145,33.5,21.321,65.109,18.191,36.4-11.285,29.437-17.094,5.34-10.415,4.207-12.318-10.357.2-17.477.5,3.722,13.72-5.017,19.929-37.867,5.308-46.929-5.708-27.025-3.4-26.863-10.916,26.054-14.021,38.353-.8,30.585,15.122,31.88,6.209,2.1-9.113,2.1-9.113-45.8-2.3-56.153-8.913-11.166-9.614-9.871-20.13,1.78-20.43-8.577-22.533-26.833-1.382-54.99-1.181S-.159,126.2,0,115.486,6.314,99.378,14.567,99.921s2.589,15.156,12.946,21.219S57.289,122.6,75.737,126.6s22.17,9.214,22.17,9.214S99.2,124.5,78.488,122.4s-39.647-2.6-47.091-10.015-7.606-11.517-7.444-21.632.809-8.413.809-19.429S23.467,46.483,34.31,43.179c0,0-2.589-18.027,11.813-28.542s64.406-7.912,75.9,2S111.824,38.572,79.3,32.763s-41.427,1.5-42.236,5.508-.809,4.106-.809,4.106,16.506-4.807,43.855-3.1,42.722-2.8,49.518-10.215a42.552,42.552,0,0,0,9.062-15.531s-15.156.166-18.884-2.911,2.237-9.435,7.954-5.487c0,0-2.651-4.922,5.468-5.128s6.3,4.871,6.3,4.871,8.037-6.461,13.422-4.256,1.574,5.589,1.574,5.589,10.357-.462,11.1,4.615-10.522,7.332-22.868,3.538c0,0,1.431,16.276-19.024,22.845S81.4,40.81,82.173,42.893s9.321,1.682,17.218,4.567,24.468.881,33.66-7.291,14.71-14.642,35.343-19.524,31.354-14.021,34.388,1.5-5.057,37.055-52.189,33.3-56.639-.876-63.921-6.885-8.779-5.633-15.414-5.633-30.423-2.8-36.734,4.807S29.95,71.956,29.141,83.974s.607,24.133,9.1,29.467,25.892,4.458,36.208,5.334a96.588,96.588,0,0,1,17.8,3.13s-3.795-6.95-19.589-6.229S38.365,107.764,37.1,96.5,29.768,53.778,46.962,52.37s12.39,16.9,12.39,33.33S81.6,97.75,92.728,107.451s2.6,16.03,2.6,16.03,8.22,2.746,7.208,13.512-1.618,22.909.2,29.669,7.08,9.89,27.308,13.27,34.995,2.879,44.1,2.879,18.61.125,18.61.125-4.046.376-4.855-5.633-20.026-6.134-47.334-4.256-43.288-15.273-30.14-21.031,73.024-1.5,84.351,5.007,3.233,14.345,3.233,14.345" transform="translate(0 0.004)" fill="#b3c867" fill-rule="evenodd"/>
        </g>
      </g>
    </g>
  </g>
</svg>
