<svg xmlns="http://www.w3.org/2000/svg" xmlns:xlink="http://www.w3.org/1999/xlink" width="1020" height="201.364" viewBox="0 0 1020 201.364">
  <defs>
    <clipPath id="clip-path">
      <rect id="Rectángulo_456721" data-name="Rectángulo 456721" width="135" height="182" rx="23" fill="#f7faef" stroke="#707070" stroke-width="1"/>
    </clipPath>
    <clipPath id="clip-path-2">
      <rect id="Rectángulo_456656" data-name="Rectángulo 456656" width="203.345" height="363.183" transform="translate(0 0)" fill="#b3c867"/>
    </clipPath>
  </defs>
  <g id="Grupo_1186725" data-name="Grupo 1186725" transform="translate(1517.833 678.364) rotate(180)">
    <rect id="Rectángulo_456720" data-name="Rectángulo 456720" width="1020" height="201.364" rx="24" transform="translate(497.833 477)" fill="#f7faef"/>
    <g id="Enmascarar_grupo_1119278" data-name="Enmascarar grupo 1119278" transform="translate(1382.833 477)" clip-path="url(#clip-path)">
      <g id="Grupo_1186682" data-name="Grupo 1186682" transform="translate(51.167 -38.592)" opacity="0.23" style="isolation: isolate">
        <g id="Grupo_1186558" data-name="Grupo 1186558" transform="translate(0 0)" clip-path="url(#clip-path-2)">
          <path id="Trazado_1085386" data-name="Trazado 1085386" d="M198.008,268.642s-4.79,10.3-3.884,15.448,6.214,4.4,6.6,6.405-8.674,1.256-9.451,4.773,16.839,47.284.4,58.936-128.322,11.959-135.592.92-4.425-56.42,33.819-45.688,33.5,33.423,65.109,28.517,36.4-17.691,29.437-26.8,5.34-16.327,4.207-19.31-10.357.314-17.477.785,3.722,21.508-5.017,31.242-37.867,8.321-46.929-8.949-27.025-5.338-26.863-17.112,26.054-21.979,38.353-1.256,30.585,23.706,31.88,9.734S164.71,292,164.71,292s-45.8-3.611-56.153-13.972-11.166-15.071-9.871-31.556,1.78-32.027-8.577-35.324-26.833-2.166-54.99-1.852S-.159,197.838,0,181.04s6.311-25.25,14.564-24.4S17.156,180.4,27.513,189.9s29.776,2.283,48.224,8.562,22.17,14.443,22.17,14.443,1.295-17.74-19.419-21.037-39.647-4.082-47.091-15.7-7.606-18.054-7.444-33.911.809-13.188.809-30.457S23.467,72.871,34.31,67.69c0,0-2.589-28.259,11.813-44.743s64.406-12.4,75.9,3.14S111.824,60.468,79.3,51.363,37.87,53.718,37.061,60s-.809,6.437-.809,6.437S52.758,58.9,80.106,61.567s42.722-4.4,49.518-16.013a83.443,83.443,0,0,0,9.062-24.346s-15.156.26-18.884-4.563,2.237-14.79,7.954-8.6c0,0-2.651-7.717,5.468-8.038s6.3,7.636,6.3,7.636S147.559-2.486,152.944.97s1.574,8.762,1.574,8.762,10.357-.724,11.1,7.234S155.1,28.46,142.753,22.512c0,0,1.431,25.514-19.024,35.813S81.4,63.977,82.173,67.242,91.494,69.88,99.391,74.4s24.468,1.381,33.66-11.429,14.71-22.953,35.343-30.606,31.354-21.979,34.388,2.355-5.057,58.088-52.189,52.2S93.954,85.548,86.672,76.128,77.893,67.3,71.258,67.3s-30.423-4.4-36.734,7.536-4.573,37.97-5.383,56.809.607,37.831,9.1,46.193,25.892,6.988,36.208,8.362a66.524,66.524,0,0,1,17.8,4.906s-3.795-10.9-19.589-9.765-34.3-12.4-35.563-30.064S29.768,84.306,46.962,82.1s12.39,26.493,12.39,52.25,22.251,18.888,33.376,34.1,2.6,25.129,2.6,25.129,8.22,4.305,7.208,21.182-1.618,35.912.2,46.509,7.08,15.5,27.308,20.8,34.995,4.514,44.1,4.514,18.61.2,18.61.2-4.046.589-4.855-8.831-20.026-9.616-47.334-6.672-43.288-23.942-30.14-32.969,73.024-2.355,84.351,7.85,3.233,22.487,3.233,22.487" transform="translate(0 0.004)" fill="#b3c867" fill-rule="evenodd"/>
        </g>
      </g>
    </g>
  </g>
</svg>
