<svg xmlns="http://www.w3.org/2000/svg" xmlns:xlink="http://www.w3.org/1999/xlink" width="124" height="124" viewBox="0 0 124 124">
  <defs>
    <clipPath id="clip-path">
      <rect id="Rectángulo_746251" data-name="Rectángulo 746251" width="76.297" height="76.451" fill="#20849e"/>
    </clipPath>
  </defs>
  <g id="Grupo_1235724" data-name="Grupo 1235724" transform="translate(-1144.348 -3099.092)">
    <circle id="Elipse_13807" data-name="Elipse 13807" cx="62" cy="62" r="62" transform="translate(1144.348 3099.092)" fill="#b8dcf3"/>
    <g id="Grupo_1229751" data-name="Grupo 1229751" transform="translate(1168.199 3122.866)">
      <g id="Grupo_1229750" data-name="Grupo 1229750" clip-path="url(#clip-path)">
        <path id="Trazado_1311444" data-name="Trazado 1311444" d="M0,104.4v-4.108l1.754-2.794L32.265,67.26a7.652,7.652,0,0,1,8.528,1.185,138.25,138.25,0,0,1,14.075,14.1c2.68,3.433,2.568,6.769-.136,10.12L25.83,121.57a7.775,7.775,0,0,1-9.25.433c-4.423-5.141-10.748-9.788-14.97-14.962A15.758,15.758,0,0,1,0,104.4M32.573,70.068l20.7,20.255a4.482,4.482,0,0,0-.029-5.568c-1.553-2.268-12.136-12.732-14.5-14.551-1.989-1.531-4.079-1.349-6.169-.135m-1.867,2.071L7.928,94.859l20.389,20.405L51.07,92.511ZM6.016,96.772c-2.6,2.42-5.091,4.882-2.622,8.486,1.328,1.938,12.557,13.127,14.532,14.519,3.7,2.6,6.032.082,8.479-2.615Z" transform="translate(0 -46.88)" fill="#20849e"/>
        <path id="Trazado_1311445" data-name="Trazado 1311445" d="M92.232,0l.015,16.3-.455,1.012H75.066c-.767-.625-.358-1.756-.44-2.641H89.591V0Z" transform="translate(-52.617 -0.001)" fill="#20849e"/>
        <path id="Trazado_1311446" data-name="Trazado 1311446" d="M202.838,0V14.673h14.672v2.641H200.638l-.455-1.012L200.2,0Z" transform="translate(-141.214 0)" fill="#20849e"/>
        <path id="Trazado_1311447" data-name="Trazado 1311447" d="M168.665,11.955V25.307c-.625.767-1.756.358-2.641.44V14.6h-7.629V11.955Z" transform="translate(-111.735 -8.433)" fill="#20849e"/>
        <path id="Trazado_1311448" data-name="Trazado 1311448" d="M99.279,23.569h-7.63v-7.63h7.63Zm-2.64-4.99H94.288v2.351h2.351Z" transform="translate(-64.652 -11.244)" fill="#20849e"/>
        <path id="Trazado_1311449" data-name="Trazado 1311449" d="M224.8,23.569h-7.63v-7.63h7.63Zm-2.64-4.99h-2.351v2.351h2.351Z" transform="translate(-153.196 -11.244)" fill="#20849e"/>
        <path id="Trazado_1311450" data-name="Trazado 1311450" d="M144.393,21.912h7.336v2.641H141.458V16.19a2.333,2.333,0,0,1,2.935,0Z" transform="translate(-99.788 -11.054)" fill="#20849e"/>
        <path id="Trazado_1311451" data-name="Trazado 1311451" d="M191.923,66.745v9.977h-2.935V69.386h-4.7V66.745Z" transform="translate(-130.006 -47.084)" fill="#20849e"/>
        <path id="Trazado_1311452" data-name="Trazado 1311452" d="M203.167,125.52v4.7h4.7v2.935h-7.19l-.44-.44V125.52Z" transform="translate(-141.25 -88.545)" fill="#20849e"/>
        <path id="Trazado_1311453" data-name="Trazado 1311453" d="M224.71,125.52v7.63c-.885-.082-2.016.327-2.641-.44v-4.548H217.52c-.767-.625-.358-1.756-.44-2.641Z" transform="translate(-153.108 -88.545)" fill="#20849e"/>
        <path id="Trazado_1311454" data-name="Trazado 1311454" d="M167.359,70.726H170v3.523h4.548a2.332,2.332,0,0,1,0,2.935h-7.189Z" transform="translate(-118.06 -49.891)" fill="#20849e"/>
        <path id="Trazado_1311455" data-name="Trazado 1311455" d="M224.8,82.684v5.282h-7.63V85.325h4.989l.275-2.513Z" transform="translate(-153.196 -58.327)" fill="#20849e"/>
        <path id="Trazado_1311456" data-name="Trazado 1311456" d="M224.8,66.745v2.641h-4.989v2.349h-2.643V66.745Z" transform="translate(-153.196 -47.084)" fill="#20849e"/>
        <path id="Trazado_1311457" data-name="Trazado 1311457" d="M141.819,53.937l2.325.232L144,56.408l-2.531-.146c-.2-.623-.383-2.083.351-2.324" transform="translate(-99.669 -38.049)" fill="#20849e"/>
        <rect id="Rectángulo_746247" data-name="Rectángulo 746247" width="2.644" height="2.644" transform="translate(63.97 31.984)" fill="#20849e"/>
        <rect id="Rectángulo_746248" data-name="Rectángulo 746248" width="2.644" height="2.644" transform="translate(68.959 31.984)" fill="#20849e"/>
        <rect id="Rectángulo_746249" data-name="Rectángulo 746249" width="2.644" height="2.644" transform="translate(26.996 19.66)" fill="#20849e"/>
        <rect id="Rectángulo_746250" data-name="Rectángulo 746250" width="2.644" height="2.644" transform="translate(46.657 15.845)" fill="#20849e"/>
        <path id="Trazado_1311458" data-name="Trazado 1311458" d="M202.873,108.579v2.644c-.638-.075-2.156.24-2.514-.276l-.129-2.368Z" transform="translate(-141.247 -76.595)" fill="#20849e"/>
        <path id="Trazado_1311459" data-name="Trazado 1311459" d="M88.208,147.146c3.108-3.107,8.665.983,5.772,5.038-3.021,4.235-9.592-1.219-5.772-5.038m2.141,1.7c-1.245.415-.234,2.971,1.3,1.891a1.16,1.16,0,0,0-1.3-1.891" transform="translate(-61.405 -103.029)" fill="#20849e"/>
        <path id="Trazado_1311460" data-name="Trazado 1311460" d="M119.9,142.531c.91-.239,3.325,3.026,4.191,3.637-.763.546-3.25,3.679-3.956,3.679-.369,0-.51-.259-.747-.438-1.858-1.41-.145-2.057.888-3.24l-1.766-2.054c0-.4,1.048-1.492,1.39-1.582" transform="translate(-83.6 -100.536)" fill="#20849e"/>
        <path id="Trazado_1311461" data-name="Trazado 1311461" d="M85.073,177.375c.837-.22,1.639,1.268,2.289,1.724,1.456-1.82,2.792-2.624,3.637.094l-3.637,3.722-3.637-3.722c-.212-.533.951-1.713,1.349-1.817" transform="translate(-59.043 -125.11)" fill="#20849e"/>
        <path id="Trazado_1311462" data-name="Trazado 1311462" d="M95.408,122.6l3.916,3.647-1.9,1.9-1.8-1.734-2.054,1.718L91.721,126.5Z" transform="translate(-64.702 -86.488)" fill="#20849e"/>
        <path id="Trazado_1311463" data-name="Trazado 1311463" d="M67.515,150.5l1.846,1.633L67.643,154.4l1.734,1.8-1.9,1.9-3.647-3.916Z" transform="translate(-45.026 -106.164)" fill="#20849e"/>
        <path id="Trazado_1311464" data-name="Trazado 1311464" d="M32.311,198.314l7.313,7.023c.365.709-1.1,1.488-1.485,2.047l-7.052-7.044c-.46-.878.652-1.5,1.224-2.027" transform="translate(-21.853 -139.896)" fill="#20849e"/>
      </g>
    </g>
  </g>
</svg>
