<svg xmlns="http://www.w3.org/2000/svg" xmlns:xlink="http://www.w3.org/1999/xlink" width="124" height="124" viewBox="0 0 124 124">
  <defs>
    <clipPath id="clip-path">
      <rect id="Rectángulo_746253" data-name="Rectángulo 746253" width="68.028" height="68.026" fill="#20849e"/>
    </clipPath>
  </defs>
  <g id="Grupo_1235725" data-name="Grupo 1235725" transform="translate(-1144.348 -3509.533)">
    <circle id="Elipse_13808" data-name="Elipse 13808" cx="62" cy="62" r="62" transform="translate(1144.348 3509.533)" fill="#b8dcf3"/>
    <g id="Grupo_1229755" data-name="Grupo 1229755" transform="translate(1171.505 3537.52)">
      <g id="Grupo_1229754" data-name="Grupo 1229754" clip-path="url(#clip-path)">
        <path id="Trazado_1311468" data-name="Trazado 1311468" d="M10.895,0c2.13.6,2.908,2.422,2.788,4.518l33.79,0C47.458,2.39,48.148.609,50.338,0h1.328c2.114.585,3,2.409,2.788,4.518a5.912,5.912,0,0,1,6.779,5.508l0,22.322c.089.466.736.749,1.013,1.046a21.152,21.152,0,0,1,4.894,8.324L68,45.836c-.062,1.128.084,2.338,0,3.454-1.288,17.051-22.425,24.99-34.668,12.959-.407-.4-1.66-2.119-2.057-2.194l-26.426,0A5.8,5.8,0,0,1,0,54.809L.021,9.649A5.922,5.922,0,0,1,6.779,4.518,3.942,3.942,0,0,1,9.434,0Zm.095,2.564c-.842-.709-1.806-.045-1.942.969a34.064,34.064,0,0,0,0,5.424c.189,1.409,1.64,1.685,2.243.407-.173-1.915.241-4.253.009-6.114a1.31,1.31,0,0,0-.31-.686M51.761,9.925a1.311,1.311,0,0,0,.309-.686,41.459,41.459,0,0,0-.014-6.109,1.091,1.091,0,0,0-2.108,0,41.5,41.5,0,0,0-.014,6.109,1.115,1.115,0,0,0,1.827.686M6.778,6.776c-1.554-.1-3.343.3-4.093,1.818a6.321,6.321,0,0,0-.423,1.3v4.849H58.971V10.164a6.386,6.386,0,0,0-.416-1.444c-.711-1.6-2.487-2.033-4.1-1.944V9.367c0,1.656-1.92,3.163-3.521,3.131-1.555-.03-3.385-1.54-3.385-3.131V6.776H13.684V9.1a3.486,3.486,0,0,1-6.353,1.838,10.844,10.844,0,0,1-.553-1.307Zm52.193,10.23H2.262V54.8c0,1.042,1.687,2.989,2.723,2.989h24.9a32.351,32.351,0,0,1-1.463-3.253c-6.031-16.922,11-32.856,27.45-25.6,1.072.473,2.031,1.146,3.1,1.617ZM46.327,29.534A18.121,18.121,0,1,0,62.664,57.7c8.364-12.487-1.414-29.238-16.337-28.168" fill="#20849e"/>
        <path id="Trazado_1311469" data-name="Trazado 1311469" d="M84.867,146.939v2.192a1.2,1.2,0,0,1-1.985.923,4.048,4.048,0,0,1-.405-.657v-2.458H76.9v3.521c0,1.256-2.391,1.419-2.391-.133v-3.388H68.93v4.517H72.45c.38,0,.941.6.993,1.008.057.437-.288,1.251-.728,1.251H68.93v2.591c0,.317-.753.874-1.129.871-.329,0-1.129-.433-1.129-.739v-2.524l-.2-.2H61.161l-.2.2v4.318h3.519a1.25,1.25,0,0,1,.87,1.8,2.038,2.038,0,0,1-.87.591H60.962v4.318c.7.476,2.071-.212,2.252,1.073.2,1.431-1.184,1.469-2.253,1.384l-.007,4.442c1.551.312,1.561,2.054,0,2.415l.008,4.437c1.03-.062,2.366-.13,2.266,1.26-.051.714-.5.947-1.13,1-5.186.471-11.081-.366-16.342-.006a3.388,3.388,0,0,1-2.86-2.984l.1-30.87a3.472,3.472,0,0,1,3.024-2.422l43.82.017a3.493,3.493,0,0,1,2.807,2.639,15.558,15.558,0,0,1,.031,3.367,1.133,1.133,0,0,1-2.166-.035c-.349-1.345.688-3.5-1.325-3.723-1.346-.152-2.942.112-4.316,0m-34.131,0H46.154c-.255,0-1,.621-1,.864v3.654h5.578Zm7.968,0H53.126v4.517H58.7Zm7.968,0H60.962v4.517h5.711Zm-15.937,6.776H45.158v4.517h5.578Zm7.968,0H53.126v4.517H58.7Zm-7.968,6.909H45.158v4.517h5.578Zm7.968,0H53.126v4.517H58.7ZM50.736,167.4H45.158v4.517h5.578Zm7.968,0H53.126v4.517H58.7Zm-7.968,6.776H45.158v3.787c0,.165.694.731.863.731h4.715Zm7.968,0H53.126v4.517H58.7Z" transform="translate(-37.185 -125.416)" fill="#20849e"/>
        <path id="Trazado_1311470" data-name="Trazado 1311470" d="M252.748,238.433a15.911,15.911,0,0,1,15.322,23.7c-6.126,10.872-22.071,10.56-27.848-.485-5.176-9.894,1.39-22.27,12.526-23.213m.664,2.258a13.578,13.578,0,1,0,11.9,21.469c6.627-9.337-.5-22.23-11.9-21.469" transform="translate(-206.686 -206.64)" fill="#20849e"/>
        <path id="Trazado_1311471" data-name="Trazado 1311471" d="M312.157,284.771c-5.853-.526-8.068-7.695-2.285-10.457.508-.243,2.043-.574,2.206-.688.193-.135.109-1.327,1.328-1.211.872.083.889,1.061,1.093,1.208s1.169.269,1.545.416a6.626,6.626,0,0,1,3.685,3.355c.354.9.734,2.8-.637,2.969-1.4.177-1.222-1.409-1.558-2.235a4.039,4.039,0,0,0-3.12-2.126v6.577a10.714,10.714,0,0,1,3.781,1.8c3.219,2.783,2.023,7.313-1.7,8.921-.442.191-1.773.446-1.949.575-.3.217-.269,1.341-1.364,1.234-.987-.1-.946-1.087-1.155-1.24-.121-.089-.816-.137-1.1-.232a6.731,6.731,0,0,1-4.059-3.379c-.363-.887-.88-2.77.465-3.067,1.5-.331,1.309,1.2,1.6,2.063a4.246,4.246,0,0,0,3.217,2.3Zm0-8.769c-4.482.776-4.44,5.653,0,6.51Zm2.258,15.544c4.447-.84,4.43-5.661,0-6.51Z" transform="translate(-265.671 -236.145)" fill="#20849e"/>
      </g>
    </g>
  </g>
</svg>
