<svg xmlns="http://www.w3.org/2000/svg" width="105.006" height="105.006" viewBox="0 0 105.006 105.006">
  <g id="Grupo_1192333" data-name="Grupo 1192333" transform="translate(4083.836 10131.58)">
    <circle id="Elipse_11481" data-name="Elipse 11481" cx="52.503" cy="52.503" r="52.503" transform="translate(-4083.836 -10131.58)" fill="#e9f8fc"/>
    <g id="reserva" transform="translate(-4057.021 -10108.178)">
      <path id="Trazado_1094334" data-name="Trazado 1094334" d="M108.421,446.755h4.87c2.823,0,2.827-4.4,0-4.4h-4.87C105.6,442.356,105.594,446.755,108.421,446.755Zm0-2.753h4.87a.554.554,0,0,1,0,1.107h-4.87A.554.554,0,0,1,108.421,444Z" transform="translate(-94.632 -393.82)" fill="#20849e"/>
      <path id="Trazado_1094335" data-name="Trazado 1094335" d="M110.715,255.816l-5.361,5.361-1.857-1.857a.823.823,0,0,0-1.164,1.164l2.439,2.439a.823.823,0,0,0,1.164,0l5.943-5.943A.823.823,0,0,0,110.715,255.816Z" transform="translate(-90.883 -227.531)" fill="#20849e"/>
      <path id="Trazado_1094336" data-name="Trazado 1094336" d="M55.573,36.405a8.634,8.634,0,0,1-.736-2.026,41.784,41.784,0,0,0-3.623-9.666L48.535,19.6a3.727,3.727,0,0,0-6.834.761,3.725,3.725,0,0,0-4.813,2.521,3.735,3.735,0,0,0-4.447,1.629V3.215A3.219,3.219,0,0,0,29.225,0H10.055a.823.823,0,0,0,0,1.646H29.225a1.571,1.571,0,0,1,1.569,1.569V5.62H1.653V3.215A1.571,1.571,0,0,1,3.222,1.646H5.446A.823.823,0,0,0,5.446,0H3.222A3.219,3.219,0,0,0,.007,3.215V52.963a3.219,3.219,0,0,0,3.215,3.215h26a3.219,3.219,0,0,0,3.215-3.215V42.81l2.941,1.454a3.725,3.725,0,0,1,1.682,1.685,5.407,5.407,0,0,0,7.285,2.377l4.9-2.569a.823.823,0,0,0-.764-1.458l-4.9,2.569a3.739,3.739,0,0,1-5.044-1.646,5.381,5.381,0,0,0-2.429-2.434L23.632,36.617c-2.344-1.138-.649-4.815,1.732-3.705L29.894,35.3a.828.828,0,0,0,1.112-1.11L23.135,19.162c-1.293-2.43,2.169-4.673,3.489-2.152l5.564,10.62L33.642,30.4A.824.824,0,0,0,35.1,29.64l-1.415-2.7a2.053,2.053,0,0,1,3.3-2.118l1.574,3.005a.824.824,0,0,0,1.458-.764l-1.6-3.056a2.064,2.064,0,0,1,3.359-1.727l1.585,3.025a.824.824,0,0,0,1.458-.764l-1.585-3.025a2.054,2.054,0,0,1,3.843-1.151l2.678,5.112a40.144,40.144,0,0,1,3.481,9.285,9.8,9.8,0,0,0,.879,2.408,3.71,3.71,0,0,1-1.563,5,.823.823,0,0,0,.764,1.458,5.357,5.357,0,0,0,2.257-7.223ZM30.795,52.963a1.571,1.571,0,0,1-1.569,1.569h-26a1.571,1.571,0,0,1-1.569-1.569V46.929H30.795ZM21.166,33.18a3.718,3.718,0,0,0,.278,3.658,7.229,7.229,0,1,1,1.982-5.6,3.757,3.757,0,0,0-2.26,1.946Zm5.975-18.086a3.687,3.687,0,0,0-1.227-.657,3.733,3.733,0,0,0-4.71,4.293H5.581a.275.275,0,0,1-.274-.274V12.574a.275.275,0,0,1,.274-.274H26.867a.275.275,0,0,1,.274.274Zm3.654,6.33-2.008-3.832V12.574a1.922,1.922,0,0,0-1.92-1.92H5.581a1.922,1.922,0,0,0-1.92,1.92v5.881a1.922,1.922,0,0,0,1.92,1.92H21.913l6.41,12.234-2.208-1.163-.03-.015a3.7,3.7,0,0,0-1.017-.315,8.871,8.871,0,1,0-2.416,6.842c2.611,1.5,5.442,2.7,8.143,4.037v3.287H1.653V7.266H30.795Z" fill="#20849e"/>
    </g>
  </g>
</svg>
