<svg xmlns="http://www.w3.org/2000/svg" width="73.165" height="73.167" viewBox="0 0 73.165 73.167">
  <g id="reserva" transform="translate(-0.007)">
    <path id="Trazado_1091984" data-name="Trazado 1091984" d="M109.062,448.085H115.4c3.677,0,3.682-5.729,0-5.729h-6.343C105.385,442.356,105.379,448.085,109.062,448.085Zm0-3.585H115.4a.721.721,0,0,1,0,1.442h-6.343A.721.721,0,0,1,109.062,444.5Z" transform="translate(-91.105 -379.141)" fill="#20849e"/>
    <path id="Trazado_1091985" data-name="Trazado 1091985" d="M113.324,255.89l-6.982,6.982-2.418-2.418a1.072,1.072,0,0,0-1.516,1.516l3.176,3.176a1.072,1.072,0,0,0,1.516,0l7.74-7.74a1.072,1.072,0,0,0-1.516-1.516Z" transform="translate(-87.495 -219.051)" fill="#20849e"/>
    <path id="Trazado_1091986" data-name="Trazado 1091986" d="M72.377,47.415a11.245,11.245,0,0,1-.959-2.639A54.42,54.42,0,0,0,66.7,32.186l-3.488-6.657a4.854,4.854,0,0,0-8.9.991A4.852,4.852,0,0,0,48.041,29.8a4.865,4.865,0,0,0-5.792,2.122V4.188A4.193,4.193,0,0,0,38.061,0H13.093a1.072,1.072,0,0,0,0,2.144H38.061a2.046,2.046,0,0,1,2.044,2.044V7.32H2.151V4.188A2.046,2.046,0,0,1,4.195,2.144h2.9A1.072,1.072,0,0,0,7.091,0h-2.9A4.192,4.192,0,0,0,.007,4.188V68.979a4.192,4.192,0,0,0,4.188,4.188H38.061a4.192,4.192,0,0,0,4.188-4.188V55.757l3.83,1.894a4.851,4.851,0,0,1,2.19,2.2,7.043,7.043,0,0,0,9.488,3.1L64.143,59.6a1.072,1.072,0,0,0-.995-1.9l-6.386,3.345a4.87,4.87,0,0,1-6.57-2.144,7.008,7.008,0,0,0-3.163-3.17L30.776,47.69c-3.053-1.483-.845-6.272,2.255-4.826l5.9,3.107a1.079,1.079,0,0,0,1.449-1.446L30.13,24.957c-1.683-3.165,2.825-6.086,4.544-2.8l7.246,13.831L43.813,39.6a1.073,1.073,0,0,0,1.9-.995l-1.843-3.517a2.674,2.674,0,0,1,4.3-2.758l2.051,3.914a1.073,1.073,0,0,0,1.9-.995l-2.085-3.98a2.689,2.689,0,0,1,4.375-2.25l2.064,3.94a1.073,1.073,0,0,0,1.9-.995l-2.064-3.94a2.675,2.675,0,0,1,5.005-1.5L64.8,33.181a52.284,52.284,0,0,1,4.533,12.093,12.763,12.763,0,0,0,1.145,3.136,4.831,4.831,0,0,1-2.035,6.514,1.072,1.072,0,0,0,.995,1.9,6.977,6.977,0,0,0,2.939-9.408ZM40.106,68.979a2.046,2.046,0,0,1-2.044,2.044H4.195a2.046,2.046,0,0,1-2.044-2.044V61.121H40.106ZM27.565,43.214a4.843,4.843,0,0,0,.362,4.764,9.415,9.415,0,1,1,2.582-7.3,4.894,4.894,0,0,0-2.943,2.535Zm7.782-23.555a4.8,4.8,0,0,0-1.6-.856,4.861,4.861,0,0,0-6.135,5.591H7.266a.358.358,0,0,1-.357-.357V16.377a.358.358,0,0,1,.357-.357H34.99a.358.358,0,0,1,.357.357ZM40.106,27.9l-2.615-4.991V16.377a2.5,2.5,0,0,0-2.5-2.5H7.266a2.5,2.5,0,0,0-2.5,2.5v7.66a2.5,2.5,0,0,0,2.5,2.5H28.537l8.348,15.934-2.876-1.514-.039-.019a4.819,4.819,0,0,0-1.324-.41A11.554,11.554,0,1,0,29.5,49.438c3.4,1.96,7.087,3.518,10.606,5.258v4.281H2.151V9.464H40.106Z" fill="#20849e"/>
  </g>
</svg>
