<svg xmlns="http://www.w3.org/2000/svg" xmlns:xlink="http://www.w3.org/1999/xlink" width="124" height="124" viewBox="0 0 124 124">
  <defs>
    <clipPath id="clip-path">
      <rect id="Rectángulo_746236" data-name="Rectángulo 746236" width="83.314" height="77.44" fill="#20849e"/>
    </clipPath>
  </defs>
  <g id="Grupo_1229699" data-name="Grupo 1229699" transform="translate(-1144.863 -7509.989)">
    <circle id="Elipse_13636" data-name="Elipse 13636" cx="62" cy="62" r="62" transform="translate(1144.863 7509.989)" fill="#b8dcf3"/>
    <g id="Grupo_1229739" data-name="Grupo 1229739" transform="translate(1164.225 7534.395)">
      <g id="Grupo_1229738" data-name="Grupo 1229738" clip-path="url(#clip-path)">
        <path id="Trazado_1311406" data-name="Trazado 1311406" d="M19.116,70.478c0,.477.263.883.285,1.367.132,2.836-2.741,3.517-4.838,4.356-1.625.65-4.081,2.176-5.445.431C5.945,68.606,3.155,60.4.1,52.31c-.37-1.445.276-2.28,1.519-2.878a39.115,39.115,0,0,1,6.089-2.339,3.225,3.225,0,0,1,3.543,2.259,6.87,6.87,0,0,0,3.767-2.62c3.762-4.98,6.771-10.977,10.509-16.009,3.983-5.361,10.346-5.317,16.174-7.408l12.558-22.2a2.456,2.456,0,0,1,3.3-.775l24.4,14.05a2.456,2.456,0,0,1,1.11,3.226L56.656,64.312a2.438,2.438,0,0,1-2.851.78L43.782,58.947A23.607,23.607,0,0,1,33.72,66.283c-2.616.959-5.477,1.493-8.168,2.25-2.158.607-4.286,1.316-6.437,1.945m37.1-68.557-.342.236L52.64,8.007a8.2,8.2,0,0,0,9.751-2.644ZM59.453,55.6,77.068,24.4a10.25,10.25,0,0,1-4.1-10.733,12.879,12.879,0,0,0,.559-1.91l-9.4-5.382c-.537.422-.92,1.066-1.449,1.55a10.322,10.322,0,0,1-9.3,2.386c-.461-.106-1.218-.475-1.567-.526a.28.28,0,0,0-.312.124L35.48,38.211a3.287,3.287,0,0,0,3.878,4.825c1.138-.368,2.683-2.163,3.619-3.011,1.591-1.442,3.177-2.891,4.791-4.308a15.707,15.707,0,0,0-.744-1.82c-3.346-9.915,8.43-17.817,16.223-11.109A10.2,10.2,0,0,1,57.39,40.657a7.065,7.065,0,0,1-1.3,3.291L45.059,57.45,47.1,58.707a10.426,10.426,0,0,1,12.354-3.1M75.319,12.8a8.115,8.115,0,0,0,2.642,9.843l3.447-6.089-.168-.3ZM50.894,24.6a8.223,8.223,0,0,0-1.8,9.317c.586,1.238.731.564,1.892.478a6.025,6.025,0,0,1,5.615,3c.152.275.492,1.3.651,1.345A8.244,8.244,0,1,0,50.894,24.6M40.326,25.774a1.026,1.026,0,0,0-.382.043,69.509,69.509,0,0,0-8.072,2.346,11.025,11.025,0,0,0-4.939,3.869c-3.764,5.163-6.891,11.044-10.665,16.231a10.653,10.653,0,0,1-2.458,2.088c-.581.329-1.224.52-1.795.862l6.348,17.453c1.972-.462,3.9-1.185,5.863-1.743,7.228-2.06,12.188-2.483,17.474-8.475,4.617-5.234,8.8-10.93,13.259-16.289a3.988,3.988,0,0,0-5.913-5.06c-2.508,2.071-4.793,4.678-7.3,6.717a5.2,5.2,0,0,1-8.313-5.755ZM10.611,75.47l.449.077c1.667-.882,4-1.364,5.595-2.274a1.522,1.522,0,0,0,.838-1.322l-8-21.93a1.417,1.417,0,0,0-1.512-1.05c-.742.369-5.8,2.11-6.021,2.439a.42.42,0,0,0-.059.249ZM54.418,56.675a8.495,8.495,0,0,0-5.662,3.05c.833.406,5.5,3.7,6.008,3.649a.377.377,0,0,0,.248-.138l3.392-5.88a7.069,7.069,0,0,0-3.986-.68" transform="translate(0 0)" fill="#20849e"/>
        <path id="Trazado_1311407" data-name="Trazado 1311407" d="M653.3,132.923c4.736-.692,5.3,6.124,1.007,6.594-4.317.473-5-6.011-1.007-6.594m.281,1.891a1.439,1.439,0,0,0,.441,2.816,1.439,1.439,0,1,0-.441-2.816" transform="translate(-589.039 -120.289)" fill="#20849e"/>
        <path id="Trazado_1311408" data-name="Trazado 1311408" d="M127.6,744.528c.873-.939,2.354.514,1.346,1.394a.972.972,0,0,1-1.346-1.394" transform="translate(-115.282 -673.741)" fill="#20849e"/>
        <path id="Trazado_1311409" data-name="Trazado 1311409" d="M544.2,283.929c.885.25,1.542,1.385.52,1.932-.789.422-1.026-.24-1.528-.207-.235.015-.749.448-1.095.522-1.013.217-3.738-.129-2.925-1.694.616-1.185,2.37.636,3.006-.592.578-1.115-1.177-2.422-2.17-1.508-.239.22-.347.568-.612.809-2.2,1.992-5.858-.135-5.465-3.011-2-.721-.681-2.976.937-1.644a4.171,4.171,0,0,1,1.415-.637c1.011-.177,3.436.257,2.675,1.729-.456.883-1.292.215-1.832.152-1.754-.2-1.612,1.847-.127,2.21,1.091.267,1.154-.507,1.751-1.055,2.18-2,5.846.118,5.45,3" transform="translate(-482.45 -251.546)" fill="#20849e"/>
      </g>
    </g>
  </g>
</svg>
