<svg xmlns="http://www.w3.org/2000/svg" width="77" height="77" viewBox="0 0 77 77">
  <g id="registrarse" transform="translate(-16 -16)">
    <path id="Trazado_1091973" data-name="Trazado 1091973" d="M91.717,50.65H89.743a5.1,5.1,0,0,0,.691-2.567,17.682,17.682,0,0,0-1.857-7.867l-.845-1.69a1.283,1.283,0,0,0-.574-.574L84.2,36.472a4.4,4.4,0,0,0,3.205-6.3l-.819-1.637v-.979a8.992,8.992,0,0,0-9.021-8.985h-.193a8.753,8.753,0,0,0-8.753,8.759V28.53L67.8,30.168a4.4,4.4,0,0,0,3.888,6.364L69.24,38a1.283,1.283,0,0,0-.6.849L67.5,44.534l-6.993,2.331a1.283,1.283,0,0,0-.878,1.217V50.65h-.752L51.933,43.7V36.093a6.374,6.374,0,0,0-1.879-4.537L47.37,28.872a5.1,5.1,0,0,0,.713-2.605V20.238a4.238,4.238,0,0,0-6.59-3.527l-3.105,2.07a1.283,1.283,0,0,0-.572,1.068v6.417a5.1,5.1,0,0,0,.713,2.605L35.2,32.2a6.448,6.448,0,0,0-1.55,2.508l-3.467,10.4a1.283,1.283,0,0,0-.021.743l3.85,14.117a1.283,1.283,0,0,0,1.238.946H36.9l-.363,14L35.25,83.276V68.616a1.283,1.283,0,0,0-1.283-1.283h-3.85V60.916a1.283,1.283,0,0,0-1.283-1.283H22.417a1.283,1.283,0,0,0-1.283,1.283v6.417h-3.85A1.283,1.283,0,0,0,16,68.616V89.15a1.283,1.283,0,0,0,1.283,1.283H19.85v1.283a1.283,1.283,0,1,0,2.567,0V90.433h6.417v1.283a1.283,1.283,0,0,0,2.567,0V90.433h2.567a1.289,1.289,0,0,0,.185-.015l-.17,1.1A1.283,1.283,0,0,0,35.25,93H39.1a1.283,1.283,0,0,0,1.195-.815L44.63,81.124l3.515,10.984A1.283,1.283,0,0,0,49.367,93h42.35A1.283,1.283,0,0,0,93,91.716V51.933a1.283,1.283,0,0,0-1.283-1.283ZM23.7,62.2h3.85v5.133H23.7Zm8.983,25.667H18.567V69.9h2.567v2.567H23.7V69.9h3.85v2.567h2.567V69.9h2.567Zm53.6-46.5a15.1,15.1,0,0,1,1.586,6.72A2.57,2.57,0,0,1,85.3,50.65H81.45V47.8l4.161-1.04-.623-2.49-2.255.564V38.609l2.893,1.447ZM80.167,31.4a2.567,2.567,0,1,1-5.133,0V28.081L76.317,26.8l1.659,1.659a1.283,1.283,0,0,0,.907.376h1.283Zm-3.495,5.133H78.58l1.586.793v8.151L75.033,46.76V37.516Zm-.355,12.552,2.567-.642V50.65H76.317ZM69.9,32.135a1.84,1.84,0,0,1,.193-.819l.955-1.909a1.283,1.283,0,0,0,.136-.575V27.324a6.187,6.187,0,0,1,6.187-6.19h.193a6.43,6.43,0,0,1,4.572,1.881,6.361,6.361,0,0,1,1.882,4.536v1.282a1.283,1.283,0,0,0,.136.574l.954,1.908a1.832,1.832,0,0,1-1.638,2.651H82.043a5.1,5.1,0,0,0,.691-2.567V27.55a1.283,1.283,0,0,0-1.283-1.283H79.415l-2.191-2.191a1.283,1.283,0,0,0-1.815,0l-2.567,2.567a1.283,1.283,0,0,0-.376.907V31.4a5.1,5.1,0,0,0,.691,2.567H71.731A1.834,1.834,0,0,1,69.9,32.135Zm-.878,14.6a1.283,1.283,0,0,0,.853-.966l1.172-5.86,1.42-.852V50.65H67.333V47.3ZM62.2,49.008l2.567-.856v2.5H62.2Zm-3.319,4.208H90.433v3.85H52.193l-.2-3.028,3.218,1.609a1.283,1.283,0,0,0,1.481-.24Zm-2.346-1.283L55.53,52.938l-3.6-1.8V47.331ZM40.383,26.266V23.7h5.133v2.567a2.567,2.567,0,0,1-5.133,0Zm0-5.73,2.534-1.689a1.672,1.672,0,0,1,2.6,1.391v.895H40.383Zm-4.3,14.985a3.869,3.869,0,0,1,.93-1.5l3.33-3.33a5.117,5.117,0,0,0,5.211,0l2.684,2.684a3.825,3.825,0,0,1,1.128,2.722v15.84H40.383V47.1L44.1,39.674l-2.3-1.148-2.069,4.138-5.427-1.809ZM32.74,45.554l.755-2.264,5.079,1.693-.622,1.243a1.283,1.283,0,0,0-.136.574V58.35H36.23Zm5.484,44.879H36.746l2.339-15.2a1.273,1.273,0,0,0,.015-.162l.269-10.383,4.022,12.568Zm12.425,0H50.3l-9.92-31V54.5h9.066l2.4,35.933Zm3.767,0-2.053-30.8H90.433v30.8Z" transform="translate(0 0)" fill="#b3c867"/>
    <rect id="Rectángulo_459620" data-name="Rectángulo 459620" width="3" height="3" transform="translate(71 83.999)" fill="#b3c867"/>
    <rect id="Rectángulo_459621" data-name="Rectángulo 459621" width="10" height="3" transform="translate(77 83.999)" fill="#b3c867"/>
    <rect id="Rectángulo_459622" data-name="Rectángulo 459622" width="8" height="2" transform="translate(79 78.999)" fill="#b3c867"/>
  </g>
</svg>
