<svg xmlns="http://www.w3.org/2000/svg" xmlns:xlink="http://www.w3.org/1999/xlink" width="124" height="124" viewBox="0 0 124 124">
  <defs>
    <clipPath id="clip-path">
      <rect id="Rectángulo_746241" data-name="Rectángulo 746241" width="58.328" height="73.095" fill="#20849e"/>
    </clipPath>
  </defs>
  <g id="Grupo_1235723" data-name="Grupo 1235723" transform="translate(-1144.348 -2680.65)">
    <circle id="Elipse_13806" data-name="Elipse 13806" cx="62" cy="62" r="62" transform="translate(1144.348 2680.65)" fill="#b8dcf3"/>
    <g id="Grupo_1229747" data-name="Grupo 1229747" transform="translate(1175.805 2705.953)">
      <g id="Grupo_1229746" data-name="Grupo 1229746" clip-path="url(#clip-path)">
        <path id="Trazado_1311430" data-name="Trazado 1311430" d="M43.591,0a6.7,6.7,0,0,1,4.432,3.391,14.9,14.9,0,0,1,.58,1.7V34.183a3.686,3.686,0,0,1,4.861,3.646,3.76,3.76,0,0,1,4.823,2.7l.04,16.224c-.383,2.084-2.161,4.864-2.421,6.845-.348,2.648.289,5.869-.081,8.579a1.173,1.173,0,0,1-1.068.755c-5.873-.406-12.447.528-18.237,0-.435-.039-1.284-.342-1.284-.843V63.2h-18c-2.115,0-5.014-3.1-5.072-5.258L12.152,34.03A12.157,12.157,0,0,1,.8,26.323c-.329-.861-.46-1.77-.8-2.623V20.054c.369-.84.47-1.761.8-2.622A12.162,12.162,0,0,1,12.152,9.724c.07-2.724-.5-5.262,1.369-7.518A7.605,7.605,0,0,1,17.011,0Zm2.278,4.861a3.54,3.54,0,0,0-3.411-2.437c-7.883-.59-16.5.454-24.458.008a3.532,3.532,0,0,0-3.116,2.429Zm.3,2.431H14.581v2.735a11.812,11.812,0,0,1,6.234,3.259c.377.362.727,1.188,1.287,1.3h20.5c.373-.09,1.136.55,1.136.839V32.968a4.918,4.918,0,0,1,2.43,0ZM11.056,12.2c-12.286,1.249-10.9,20.2,1.776,19.4,12.8-.8,11.444-20.744-1.776-19.4m30.257,4.817H23.39L24,19.439c1.572.351,4.961-.947,5.165,1.291a32.9,32.9,0,0,1-.04,5.14,1.163,1.163,0,0,1-.964.859c-.833.13-4.59-.162-4.9.034a13.23,13.23,0,0,1-2.373,3.626c-.221.237-1.448,1.127-1.448,1.286V46.185h6.075V39.728c0-.5.849-.8,1.284-.843,2.359-.214,5.045.166,7.441.016.325-.039,1,.586,1,.827v2.659c.177-.12,1.215-.241,1.215-.3V36.462H32.428c-.317,0-.773-.656-.826-1a32.724,32.724,0,0,1-.016-5.012c.039-.435.342-1.284.843-1.284h4.025a9.768,9.768,0,0,1,.152-2.431H32.428c-.4,0-.792-.74-.839-1.136a33.4,33.4,0,0,1,0-5.02,1.152,1.152,0,0,1,1.139-1.14,33.423,33.423,0,0,1,5.019,0c.4.046,1.136.437,1.136.839V24.46a4.918,4.918,0,0,1,2.43,0ZM26.732,21.877H24.3v2.431h2.43Zm9.721,0h-2.43v2.431h2.43Zm0,27.119c-.244-1.145.181-3.09,0-4.33a3.381,3.381,0,0,0-2.208,2.729c-.274,1.141-.442,8.193-.1,9.079.361.948,3.527,5.693,3.527,6.043v7.976h15.8V62.821c0-.95,2.214-5.075,2.417-6.546l-.062-15.26c-.291-1.254-2.207-1.3-2.361.531-.2,2.38.189,5.01-.027,7.418a1.224,1.224,0,0,1-2.4-.268c-.4-3.394.46-7.744-.006-11.084a1.212,1.212,0,0,0-2.42.142c-.29,2.765.242,5.966-.033,8.779a1.224,1.224,0,0,1-2.4-.268c-.354-3.024.41-6.89-.006-9.868a1.205,1.205,0,0,0-2.406,0c-.369,2.555.272,5.827-.047,8.461a1.226,1.226,0,0,1-2.4-.268c-.356-5.285.484-11.211.012-16.419-.175-1.926-2.26-1.851-2.438-.144L38.85,48.963a1.271,1.271,0,0,1-2.4.032m0-17.4h-2.43v2.431h2.43ZM17.011,33.119l-2.43.608V55.908H31.592V48.616H17.847a1.891,1.891,0,0,1-.835-.836Zm15.8,8.2h-4.86v4.861h4.1c-.046-.392.759-1.407.759-1.6Zm-.3,17.015H14.885c.066,1.019,1.907,2.431,2.81,2.431H33.719Z" fill="#20849e"/>
        <path id="Trazado_1311433" data-name="Trazado 1311433" d="M50.443,111.714a1.233,1.233,0,0,1,1.389,1.851l-7.669,7.671a1.277,1.277,0,0,1-1.329,0,35.41,35.41,0,0,1-2.809-2.81,1.236,1.236,0,0,1,1.708-1.708c.471.245,1.5,1.8,1.916,1.584,1.264-.886,5.743-6.356,6.794-6.588" transform="translate(-33.778 -94.669)" fill="#20849e"/>
        <path id="Trazado_1311434" data-name="Trazado 1311434" d="M143.95,191.1a34.438,34.438,0,0,1,5.287-.036,1.152,1.152,0,0,1,1.139,1.14,35.783,35.783,0,0,1-.071,5.4,1.173,1.173,0,0,1-1.068.755,35.772,35.772,0,0,1-5.4-.071,1.173,1.173,0,0,1-.755-1.068,33.417,33.417,0,0,1,0-5.02,1.166,1.166,0,0,1,.871-1.1m3.993,2.4h-2.43v2.431h2.43Z" transform="translate(-121.21 -161.897)" fill="#20849e"/>
        <path id="Trazado_1311435" data-name="Trazado 1311435" d="M176.315,63.864l15.008-.036a1.22,1.22,0,0,1,0,2.437c-4.548.526-10.086-.4-14.74,0a1.226,1.226,0,0,1-.268-2.4" transform="translate(-148.715 -54.108)" fill="#20849e"/>
        <path id="Trazado_1311436" data-name="Trazado 1311436" d="M144.462,63.815a1.235,1.235,0,0,1,.691,2.371,1.235,1.235,0,0,1-.691-2.371" transform="translate(-121.721 -54.062)" fill="#20849e"/>
        <path id="Trazado_1311437" data-name="Trazado 1311437" d="M112.545,334.862a38.238,38.238,0,0,1,5.555,0,1.231,1.231,0,0,1-.128,2.389,36.068,36.068,0,0,1-5.427-.023,1.238,1.238,0,0,1,0-2.366" transform="translate(-94.666 -283.783)" fill="#20849e"/>
      </g>
    </g>
  </g>
</svg>
