<svg xmlns="http://www.w3.org/2000/svg" xmlns:xlink="http://www.w3.org/1999/xlink" width="124" height="124" viewBox="0 0 124 124">
  <defs>
    <clipPath id="clip-path">
      <rect id="Rectángulo_746246" data-name="Rectángulo 746246" width="76.714" height="82.184" fill="#20849e"/>
    </clipPath>
  </defs>
  <g id="Grupo_1229730" data-name="Grupo 1229730" transform="translate(-353.023 -8133)">
    <circle id="Elipse_13805" data-name="Elipse 13805" cx="62" cy="62" r="62" transform="translate(353.023 8133)" fill="#b8dcf3"/>
    <g id="Grupo_1229749" data-name="Grupo 1229749" transform="translate(382.023 8156.21)">
      <g id="Grupo_1229748" data-name="Grupo 1229748" clip-path="url(#clip-path)">
        <path id="Trazado_1311438" data-name="Trazado 1311438" d="M43.49,0a7.462,7.462,0,0,1,5.164,3.9A15.671,15.671,0,0,1,49.267,5.7v16.13H75.345a1.706,1.706,0,0,1,1.288,1.119l.08,35.88a1.688,1.688,0,0,1-1.368,1.521H49.267v16.13c0,2.393-3.591,5.69-6.038,5.678l-36.737.027A7.108,7.108,0,0,1,0,76.4V5.778A7.391,7.391,0,0,1,5.777,0Zm3.049,10.914V6.179c0-1.62-2.468-3.578-4.095-3.448l-35.31-.01C5.149,2.568,2.728,4.469,2.728,6.5v4.414Zm0,2.729H2.969l-.241.241v54.41l.241.241h43.57V60.349h-19.1v2.488l-.241.241H24.794V19.1H27.2l.241.241v2.488h19.1ZM73.981,24.717H27.442V57.459H73.981ZM46.539,71.263H2.728v4.414c0,2.032,2.421,3.932,4.406,3.779l35.31-.01c1.627.13,4.095-1.828,4.095-3.448Z" fill="#20849e"/>
        <path id="Trazado_1311439" data-name="Trazado 1311439" d="M233.132,178.59c16.715-1.552,18.41,23.6,2.036,24.667-15.96,1.039-17.83-23.2-2.036-24.667m.8,2.729c-12.275.6-11.888,19.124.434,19.122,13,0,12.4-19.754-.434-19.122" transform="translate(-186.464 -149.812)" fill="#20849e"/>
        <path id="Trazado_1311440" data-name="Trazado 1311440" d="M395.916,170.209c.9.2.963,1.986.882,2.729.731.056,1.813-.223,2.358.37a5.085,5.085,0,0,1,.371.673v4.414H396.8v-2.729c-2.206.277-3.071-.51-2.888-2.729-.165-.167-2.4.289-2.729-.24v-2.488c1.332.2,3.517-.275,4.734,0" transform="translate(-328.274 -142.764)" fill="#20849e"/>
        <path id="Trazado_1311441" data-name="Trazado 1311441" d="M399.527,289.434v4.414a5.075,5.075,0,0,1-.371.673c-.545.593-1.627.314-2.358.37a4.492,4.492,0,0,1-.313,2.294,3.909,3.909,0,0,1-.568.436h-4.734v-2.488c.324-.529,2.564-.073,2.729-.24-.183-2.22.682-3.006,2.888-2.729v-2.729Z" transform="translate(-328.274 -242.889)" fill="#20849e"/>
        <rect id="Rectángulo_746242" data-name="Rectángulo 746242" width="2.728" height="2.729" transform="translate(23.269 73.991)" fill="#20849e"/>
        <rect id="Rectángulo_746243" data-name="Rectángulo 746243" width="8.345" height="2.729" transform="translate(13.641 5.457)" fill="#20849e"/>
        <rect id="Rectángulo_746244" data-name="Rectángulo 746244" width="2.728" height="2.729" transform="translate(8.184 5.457)" fill="#20849e"/>
        <path id="Trazado_1311442" data-name="Trazado 1311442" d="M277.853,204.6l.026,1.58a3.943,3.943,0,0,1,2.7,3.877h-2.728c-.151-2.35-3.563-1.278-2.472.628.523.914,1.561.6,2.471.9a4.119,4.119,0,0,1,1.849,6.5,14.4,14.4,0,0,1-1.609,1.28c-.216.351-.011,1.174-.078,1.607h-2.889l-.078-1.607a4.15,4.15,0,0,1-2.65-3.85h2.648c.416.7.422,1.288,1.442,1.3a1.3,1.3,0,0,0,1.245-1.9c-.373-.861-1.666-.725-2.417-.952a4.1,4.1,0,0,1-.216-7.78l.026-1.58Z" transform="translate(-228.586 -171.697)" fill="#20849e"/>
        <path id="Trazado_1311443" data-name="Trazado 1311443" d="M246.581,246.658l2.556.128-.08,2.669-2.669-.08c-.05-.5-.285-2.56.193-2.716" transform="translate(-206.68 -206.992)" fill="#20849e"/>
        <rect id="Rectángulo_746245" data-name="Rectángulo 746245" width="2.728" height="2.729" transform="translate(53.439 39.804)" fill="#20849e"/>
      </g>
    </g>
  </g>
</svg>
