<svg xmlns="http://www.w3.org/2000/svg" xmlns:xlink="http://www.w3.org/1999/xlink" width="124" height="124" viewBox="0 0 124 124">
  <defs>
    <clipPath id="clip-path">
      <rect id="Rectángulo_746252" data-name="Rectángulo 746252" width="57.62" height="74.523" fill="#20849e"/>
    </clipPath>
  </defs>
  <g id="Grupo_1229734" data-name="Grupo 1229734" transform="translate(-353.023 -8133)">
    <circle id="Elipse_13805" data-name="Elipse 13805" cx="62" cy="62" r="62" transform="translate(353.023 8133)" fill="#b8dcf3"/>
    <g id="Grupo_1229753" data-name="Grupo 1229753" transform="translate(388.023 8150.426)">
      <g id="Grupo_1229752" data-name="Grupo 1229752" clip-path="url(#clip-path)">
        <path id="Trazado_1311465" data-name="Trazado 1311465" d="M37.847,0a12.593,12.593,0,0,1,1.209.675c1.628,1.239,3.492,3.629,4.968,5.136q6.381,6.513,12.745,13.042a3.032,3.032,0,0,1,.443,3.615l-7.455,7.323V36.2h5.05a3.251,3.251,0,0,1,2.645,2.935V71.583a3.254,3.254,0,0,1-3.242,2.941H6.559C3.529,74.323.284,72.46,0,69.169V32.351c.3-4.215,4.613-5.857,8.343-5.53C16.849,19.078,24.768,10.65,33.171,2.79A11.717,11.717,0,0,1,36.791,0Zm0,36.2h2.337L55.268,21.581c.686-.762-.378-1.667-.911-2.274-1.2-1.37-2.721-2.661-4-3.991L37.856,2.331c-.429-.42-.867-.213-1.291.083a51.756,51.756,0,0,0-3.773,3.616c-9.42,9.075-18.7,18.307-28.121,27.375l-.145.447c.034.625,1.592,1.843,2.069,2.321a21.059,21.059,0,0,0,3.811-.047,2.885,2.885,0,0,0,1.22-2.261c-.007-1.728-2.145-2.333-1.285-3.689,7.046-6.562,13.7-13.56,20.72-20.146a28.629,28.629,0,0,1,2.827-2.464c.843-.155,1.773,1.581,3.295,1.623,1.843.051,2.336-2.4,3.965-1.1l8.8,9.149c.472,1.138-.418,1.276-.915,2.024a3.007,3.007,0,0,0-.407,2.469c.242.919,1.389,1.395,1.3,2.336Zm-6.784,0h3.694l12.67-12.216a5.382,5.382,0,0,1,.067-6.266l-7.234-7.549a5.041,5.041,0,0,1-6.132-.044L12.738,30.777c-.162.325.334.732.46,1.052a5.548,5.548,0,0,1-.075,4.374H29.1l-2.15-.64c-9.332-3.735-6.331-17.58,3.89-16.865,9.134.639,10.854,13.621,2.371,16.867ZM29.524,20.712c-8.829.765-7.612,14.023,1.01,13.377,8.836-.662,7.709-14.132-1.01-13.377M6.188,28.965C3.681,29.127,1.4,31.109,2.27,33.79c.4-.2.287-.726.465-1.117.684-1.5,2.528-2.341,3.453-3.709M47.646,31.98,43.274,36.2h4.372Zm7.689,15.839V38.844c0-.329-1.387-.729-1.728-.684l-47.8.011a7.641,7.641,0,0,1-3.688-1.514V48.422H18.248l-.07-1.815a3.3,3.3,0,1,1,3.393-.819c-.445.444-.935.5-1.339.923-.163.688.38,3.822-.7,3.822H2.117v3.771H26.464c1.1-2.746,5.152-3.145,6.287-.257,1.638,4.171-4.62,6.584-6.061,2.368H2.117v3.922H19.53c1.09,0,.534,3.2.7,3.9,4.434,1.73,1.68,8.178-2.635,6.03-2.5-1.245-2.033-5.258.627-6.03l.024-1.786H2.117v7.165a9.442,9.442,0,0,0,.757,1.2,5.488,5.488,0,0,0,3.383,1.593l48.586-.12a1.724,1.724,0,0,0,.491-.414V62.9H48.174c-3.619,0-6.83-3.694-7.015-7.159s2.918-7.926,6.563-7.926ZM20.163,44.306c1.139-1.35-1.154-3.052-2.046-1.37-.7,1.328,1.222,2.346,2.046,1.37m35.172,5.624H47.571a8.011,8.011,0,0,0-2.235,1.082,5.528,5.528,0,0,0,.853,9.2,8.526,8.526,0,0,0,1.684.578h7.462ZM29.209,54.186a1.287,1.287,0,0,0,.037,2.314c2.192.7,2.226-2.991-.037-2.314m-10.4,12.068c-1.453.322-.845,2.672.686,2.355a1.228,1.228,0,1,0-.686-2.355" transform="translate(0 -0.001)" fill="#20849e"/>
        <path id="Trazado_1311466" data-name="Trazado 1311466" d="M175.674,154.239a1.382,1.382,0,0,1,.078,1.283c-.305.656-2,.4-1.675,1.586.294,1.063,1.508-.315,1.985-.523a2.662,2.662,0,0,1,3.841,2.367c0,.387-.275.893-.254,1.215.025.373.522.587.207,1.272-.466,1.014-1.317.357-1.819.3-.7-.074-2.058.675-2.414-.6-.46-1.651,2.2-.881,2.216-2.189.017-1.431-2,.383-2.536.493a2.652,2.652,0,0,1-3.362-2.461c-.009-.457.31-1.027.261-1.325-.071-.438-.726-.856-.114-1.542.706-.792,1.205-.038,1.625.054.5.109,1.316-.616,1.961.068" transform="translate(-145.857 -130.517)" fill="#20849e"/>
        <path id="Trazado_1311467" data-name="Trazado 1311467" d="M305.8,342.37c4.712-.575,5.391,6.451,1.152,7.039-5.142.713-5.63-6.492-1.152-7.039m1.5,2.423c-1.514-1.34-3.66,1.152-1.839,2.367a1.5,1.5,0,0,0,1.839-2.367" transform="translate(-256.984 -290.592)" fill="#20849e"/>
      </g>
    </g>
  </g>
</svg>
