<svg xmlns="http://www.w3.org/2000/svg" width="85" height="85" viewBox="0 0 85 85">
  <g id="registrarse" transform="translate(-16 -16)">
    <path id="Trazado_1091973" data-name="Trazado 1091973" d="M99.584,54.25H97.4a5.63,5.63,0,0,0,.762-2.833,19.519,19.519,0,0,0-2.05-8.685l-.933-1.865a1.416,1.416,0,0,0-.634-.634L91.282,38.6a4.855,4.855,0,0,0,3.538-6.96l-.9-1.807v-1.08a9.926,9.926,0,0,0-9.958-9.918h-.213A9.663,9.663,0,0,0,74.083,28.5v1.331l-.9,1.808a4.854,4.854,0,0,0,4.292,7.025l-2.7,1.62a1.416,1.416,0,0,0-.66.937L72.856,47.5l-7.72,2.573a1.417,1.417,0,0,0-.969,1.344V54.25h-.83l-7.67-7.67v-8.4a7.037,7.037,0,0,0-2.075-5.009L50.63,30.209a5.631,5.631,0,0,0,.787-2.876V20.679a4.679,4.679,0,0,0-7.274-3.893l-3.428,2.285a1.417,1.417,0,0,0-.631,1.179v7.083a5.631,5.631,0,0,0,.787,2.876l-3.676,3.676a7.118,7.118,0,0,0-1.711,2.769L31.656,48.135a1.417,1.417,0,0,0-.023.821l4.25,15.583a1.417,1.417,0,0,0,1.367,1.044h1.82l-.4,15.457L37.25,90.266V74.083a1.417,1.417,0,0,0-1.417-1.417h-4.25V65.583a1.417,1.417,0,0,0-1.417-1.417H23.083a1.417,1.417,0,0,0-1.417,1.417v7.083h-4.25A1.417,1.417,0,0,0,16,74.083V96.75a1.417,1.417,0,0,0,1.417,1.417H20.25v1.417a1.417,1.417,0,1,0,2.833,0V98.167h7.083v1.417a1.417,1.417,0,1,0,2.833,0V98.167h2.833a1.422,1.422,0,0,0,.2-.016l-.187,1.218A1.417,1.417,0,0,0,37.25,101H41.5a1.417,1.417,0,0,0,1.319-.9L47.6,87.89l3.88,12.125a1.417,1.417,0,0,0,1.349.985h46.75A1.417,1.417,0,0,0,101,99.583V55.667a1.417,1.417,0,0,0-1.417-1.417ZM24.5,67h4.25v5.667H24.5Zm9.917,28.333H18.833V75.5h2.833v2.833H24.5V75.5h4.25v2.833h2.833V75.5h2.833ZM93.583,44a16.672,16.672,0,0,1,1.751,7.418A2.837,2.837,0,0,1,92.5,54.25H88.25V51.106l4.594-1.148-.687-2.749-2.49.623V40.959l3.194,1.6ZM86.834,33a2.833,2.833,0,1,1-5.667,0V29.337l1.417-1.417,1.832,1.832a1.416,1.416,0,0,0,1,.415h1.417Zm-3.858,5.667h2.106l1.751.876v9l-5.667,1.417v-10.2Zm-.392,13.856,2.833-.708V54.25H82.584ZM75.5,33.812a2.032,2.032,0,0,1,.213-.9L76.767,30.8a1.416,1.416,0,0,0,.15-.634V28.5a6.829,6.829,0,0,1,6.829-6.834h.213a7.1,7.1,0,0,1,5.047,2.077,7.022,7.022,0,0,1,2.078,5.008v1.415a1.416,1.416,0,0,0,.15.634l1.053,2.106a2.022,2.022,0,0,1-1.809,2.927H88.9A5.63,5.63,0,0,0,89.667,33V28.75a1.417,1.417,0,0,0-1.417-1.417H86l-2.418-2.418a1.417,1.417,0,0,0-2,0l-2.833,2.833a1.416,1.416,0,0,0-.415,1V33a5.63,5.63,0,0,0,.762,2.833H77.522A2.024,2.024,0,0,1,75.5,33.812Zm-.969,16.116a1.417,1.417,0,0,0,.941-1.066l1.294-6.469,1.567-.94v12.8H72.667v-3.7ZM67,52.438l2.833-.944V54.25H67Zm-3.663,4.646h34.83v4.25H55.953l-.223-3.343,3.553,1.776a1.417,1.417,0,0,0,1.635-.265Zm-2.59-1.417-1.11,1.11-3.97-1.985v-4.2ZM42.917,27.333V24.5h5.667v2.833a2.833,2.833,0,1,1-5.667,0Zm0-6.325,2.8-1.865a1.846,1.846,0,0,1,2.869,1.536v.988H42.917ZM38.171,37.55A4.271,4.271,0,0,1,39.2,35.889l3.676-3.676a5.649,5.649,0,0,0,5.752,0l2.962,2.962a4.223,4.223,0,0,1,1.245,3.005V55.667H42.917V50.334l4.1-8.2-2.534-1.267L42.2,45.434l-5.99-2ZM34.48,48.624l.833-2.5,5.606,1.869-.686,1.372a1.416,1.416,0,0,0-.15.634V62.75H38.332Zm6.054,49.542H38.9l2.582-16.785A1.405,1.405,0,0,0,41.5,81.2l.3-11.462,4.44,13.874Zm13.716,0h-.383L42.917,63.945V58.5H52.925l2.644,39.667Zm4.159,0-2.267-34H98.167v34Z" transform="translate(0 0)" fill="#b3c867"/>
    <rect id="Rectángulo_459620" data-name="Rectángulo 459620" width="3" height="3" transform="translate(77 91)" fill="#b3c867"/>
    <rect id="Rectángulo_459621" data-name="Rectángulo 459621" width="11" height="3" transform="translate(83 91)" fill="#b3c867"/>
    <rect id="Rectángulo_459622" data-name="Rectángulo 459622" width="9" height="3" transform="translate(85 85)" fill="#b3c867"/>
  </g>
</svg>
