<svg xmlns="http://www.w3.org/2000/svg" xmlns:xlink="http://www.w3.org/1999/xlink" width="88.348" height="88.348" viewBox="0 0 88.348 88.348">
  <defs>
    <filter id="Elipse_13737" x="0" y="0" width="88.348" height="88.348" filterUnits="userSpaceOnUse">
      <feOffset dy="3" input="SourceAlpha"/>
      <feGaussianBlur stdDeviation="3" result="blur"/>
      <feFlood flood-opacity="0.161"/>
      <feComposite operator="in" in2="blur"/>
      <feComposite in="SourceGraphic"/>
    </filter>
  </defs>
  <g id="Grupo_1191339" data-name="Grupo 1191339" transform="translate(-177 -4842)">
    <g id="Grupo_1190317" data-name="Grupo 1190317" transform="translate(186 4848)">
      <g transform="matrix(1, 0, 0, 1, -9, -6)" filter="url(#Elipse_13737)">
        <circle id="Elipse_13737-2" data-name="Elipse 13737" cx="35.174" cy="35.174" r="35.174" transform="translate(9 6)" fill="#fff"/>
      </g>
    </g>
    <g id="actualizacion-de-software" transform="translate(107.363 4769.435)">
      <path id="Trazado_1095672" data-name="Trazado 1095672" d="M277.5,314.023h-4.369a.585.585,0,0,1-.581-.521l-.383-3.5a10.782,10.782,0,0,1-2.007-.832l-2.749,2.208a.585.585,0,0,1-.78-.043l-3.088-3.089a.585.585,0,0,1-.043-.78l2.208-2.749a10.777,10.777,0,0,1-.942-2.4.585.585,0,1,1,1.133-.293,9.643,9.643,0,0,0,1.018,2.457.585.585,0,0,1-.049.663l-2.127,2.649,2.347,2.347,2.649-2.127a.585.585,0,0,1,.663-.049,9.634,9.634,0,0,0,2.457,1.018.585.585,0,0,1,.434.5l.369,3.376h3.315l.368-3.382a.585.585,0,0,1,.434-.5,9.654,9.654,0,0,0,2.457-1.018.585.585,0,0,1,.662.049l2.649,2.127,2.347-2.347-2.127-2.649a.585.585,0,0,1-.048-.663,9.643,9.643,0,0,0,1.018-2.457.585.585,0,0,1,.5-.435l3.376-.368v-3.318l-3.364-.367a.585.585,0,1,1,.127-1.163l3.882.425a.585.585,0,0,1,.521.581v4.369a.585.585,0,0,1-.521.581l-3.5.383a10.827,10.827,0,0,1-.832,2.007l2.208,2.749a.585.585,0,0,1-.042.78L284,311.33a.585.585,0,0,1-.78.043l-2.749-2.208a10.789,10.789,0,0,1-2.007.832l-.383,3.5A.585.585,0,0,1,277.5,314.023Zm-2.188-9.083a5.385,5.385,0,1,1,5.385-5.385A5.386,5.386,0,0,1,275.316,304.941Zm0-9.6a4.216,4.216,0,1,0,4.215,4.215A4.216,4.216,0,0,0,275.316,295.34Zm-9.985,2.19a.585.585,0,0,1-.567-.732,10.835,10.835,0,0,1,.942-2.4l-2.208-2.749a.585.585,0,0,1,.043-.78l3.088-3.09a.585.585,0,0,1,.78-.042l2.749,2.208a10.866,10.866,0,0,1,2.007-.833l.384-3.5a.585.585,0,0,1,.581-.521H277.5a.585.585,0,0,1,.581.521l.424,3.885a.585.585,0,1,1-1.163.128l-.369-3.366h-3.321l-.369,3.376a.585.585,0,0,1-.434.5,9.7,9.7,0,0,0-2.457,1.018.585.585,0,0,1-.662-.049l-2.648-2.127-2.347,2.347,2.127,2.649a.585.585,0,0,1,.049.662,9.65,9.65,0,0,0-1.018,2.457A.585.585,0,0,1,265.331,297.53Z" transform="translate(-163.402 -183.914)" fill="#c5a07a"/>
      <path id="Trazado_1095673" data-name="Trazado 1095673" d="M224.743,484.129a.6.6,0,0,1-.064,0l-3.9-.426a.585.585,0,0,1-.521-.581v-4.369a.585.585,0,0,1,.521-.581l3.9-.426a.586.586,0,0,1,.129,1.165l-3.377.368v3.32l3.377.37a.585.585,0,0,1-.064,1.165Z" transform="translate(-122.814 -365.294)" fill="#c5a07a"/>
      <path id="Trazado_1095674" data-name="Trazado 1095674" d="M533.483,236.551h-2.371a.585.585,0,0,1-.581-.522l-.189-1.728a6.118,6.118,0,0,1-.811-.336l-1.356,1.089a.585.585,0,0,1-.78-.042l-1.676-1.676a.585.585,0,0,1-.043-.78l1.089-1.356a6.092,6.092,0,0,1-.453-1.2.585.585,0,1,1,1.133-.292,4.97,4.97,0,0,0,.526,1.264.585.585,0,0,1-.049.662l-1.006,1.246.936.936,1.25-1a.585.585,0,0,1,.663-.048,4.977,4.977,0,0,0,1.264.526.585.585,0,0,1,.434.5l.175,1.593h1.321l.175-1.593a.585.585,0,0,1,.434-.5,4.99,4.99,0,0,0,1.265-.526.585.585,0,0,1,.662.048l1.247,1,.936-.936-1-1.25a.585.585,0,0,1-.048-.662,4.991,4.991,0,0,0,.526-1.264.585.585,0,0,1,.5-.434l1.593-.175v-1.319l-1.593-.175a.585.585,0,0,1-.5-.434,4.991,4.991,0,0,0-.526-1.264.585.585,0,0,1,.048-.662l1-1.251-.936-.936-1.248,1.007a.585.585,0,0,1-.662.048,4.991,4.991,0,0,0-1.265-.526.585.585,0,0,1-.434-.5l-.175-1.593h-1.32l-.176,1.593a.585.585,0,0,1-.434.5,4.977,4.977,0,0,0-1.264.526.585.585,0,0,1-.663-.048l-1.247-1-.936.936,1,1.25a.585.585,0,0,1,.049.662,4.972,4.972,0,0,0-.526,1.264.585.585,0,1,1-1.133-.292,6.131,6.131,0,0,1,.453-1.2l-1.089-1.356a.585.585,0,0,1,.043-.78l1.676-1.676a.585.585,0,0,1,.78-.042l1.356,1.089a6.085,6.085,0,0,1,.811-.336l.189-1.728a.585.585,0,0,1,.581-.522h2.371a.585.585,0,0,1,.581.522l.188,1.728a6.078,6.078,0,0,1,.811.336l1.356-1.089a.585.585,0,0,1,.78.042l1.676,1.676a.585.585,0,0,1,.043.78l-1.089,1.356a6.277,6.277,0,0,1,.336.81l1.728.189a.585.585,0,0,1,.521.581v2.371a.585.585,0,0,1-.521.581l-1.728.189a6.277,6.277,0,0,1-.336.81l1.089,1.356a.585.585,0,0,1-.043.78l-1.676,1.676a.585.585,0,0,1-.78.042l-1.356-1.089a6.078,6.078,0,0,1-.811.336l-.188,1.728a.585.585,0,0,1-.579.518Zm-1.184-4.928a3.19,3.19,0,1,1,3.188-3.191A3.19,3.19,0,0,1,532.3,231.623Zm0-5.209a2.02,2.02,0,1,0,2.018,2.018A2.02,2.02,0,0,0,532.3,226.414Z" transform="translate(-410.242 -122.932)" fill="#c5a07a"/>
      <path id="Trazado_1095675" data-name="Trazado 1095675" d="M504.9,328.812a.612.612,0,0,1-.064,0l-2.114-.231A.585.585,0,0,1,502.2,328v-2.371a.585.585,0,0,1,.522-.581l2.114-.231a.585.585,0,1,1,.128,1.163l-1.593.175v1.321l1.593.175a.585.585,0,0,1-.063,1.166Z" transform="translate(-388.262 -221.31)" fill="#c5a07a"/>
      <path id="Trazado_1095676" data-name="Trazado 1095676" d="M374.638,131.832a.585.585,0,0,1-.389-1.022,22.818,22.818,0,0,0-23.1-38.447.585.585,0,1,1-.409-1.1,23.982,23.982,0,0,1,24.289,40.418.579.579,0,0,1-.387.147Z" transform="translate(-245.299)" fill="#c5a07a"/>
      <path id="Trazado_1095677" data-name="Trazado 1095677" d="M113.809,232.873a23.976,23.976,0,0,1-15.918-41.92.585.585,0,1,1,.777.875,22.818,22.818,0,0,0,23.1,38.446.585.585,0,1,1,.409,1.1,23.874,23.874,0,0,1-8.373,1.5Z" transform="translate(0 -95.144)" fill="#c5a07a"/>
    </g>
  </g>
</svg>
