<svg xmlns="http://www.w3.org/2000/svg" xmlns:xlink="http://www.w3.org/1999/xlink" width="124" height="124" viewBox="0 0 124 124">
  <defs>
    <clipPath id="clip-path">
      <rect id="Rectángulo_746237" data-name="Rectángulo 746237" width="85.848" height="60.529" fill="#20849e"/>
    </clipPath>
  </defs>
  <g id="Grupo_1235721" data-name="Grupo 1235721" transform="translate(-352.324 -2014.384)">
    <circle id="Elipse_13636" data-name="Elipse 13636" cx="62" cy="62" r="62" transform="translate(352.324 2014.384)" fill="#b8dcf3"/>
    <g id="Grupo_1229741" data-name="Grupo 1229741" transform="translate(374.902 2045.119)">
      <g id="Grupo_1229740" data-name="Grupo 1229740" clip-path="url(#clip-path)">
        <path id="Trazado_1311410" data-name="Trazado 1311410" d="M75.851,25.2c-.183,11.059.161,22.171-.174,33.2a3.437,3.437,0,0,1-2.889,2.128L2.425,60.44A3.883,3.883,0,0,1,.089,58.105L0,10.281a3.428,3.428,0,0,1,3.376-3.2L70.5,7.1C71.723,4.1,72.167.952,75.81,0h2.077a5.507,5.507,0,0,1,4.308,6.293c-.069.59-1.143,3.424-1.02,3.563a4.932,4.932,0,0,1,4.673,3.632v2.075c-1.565,3.6-2.355,7.562-4.063,11.071a1.408,1.408,0,0,1-2.3-1.43l3.6-10.764a1.751,1.751,0,0,0-3.427-.482M77.021,2.766a2.813,2.813,0,0,0-2.4,1.322C73.735,5.6,73.351,8.443,72.516,10.1c0,.216,2.582.849,2.947.964.315.1,1.864.884,2.076.692.2-2.059,2.293-5.131,1.83-7.1a2.67,2.67,0,0,0-2.348-1.889m-73.9,7.263a.406.406,0,0,0-.261.164L2.766,56.814a.791.791,0,0,0,.952.951c14.4-.027,28.8,0,43.19-.01,7.969-.007,17.412.62,25.189.008a5.518,5.518,0,0,0,.944-.181V33.719L69.382,44.156,62.4,52.224a2.424,2.424,0,0,1-1.21.52,93.418,93.418,0,0,1-10.994,0c-.834-.021-1.888.183-2.588-.268a1.427,1.427,0,0,1,.428-2.5,32.747,32.747,0,0,1,4.236,0c2.478-.02,4.965.014,7.443,0l-.173-5.016c-1.671,0-3.349.005-5.02,0-14.507-.038-29.02.026-43.529,0a1.418,1.418,0,0,1-.559-2.64c15.127-.3,30.323-.045,45.473-.13,1.094-.006,2.2,0,3.289,0-.191-1.772.687-3.377,1.211-5.014-1.036-.009-2.079.006-3.115,0-10.411-.079-20.831.053-31.245.008a1.393,1.393,0,0,1,.176-2.778c10.643-.067,21.294.1,31.935,0,1.088-.01,2.184.024,3.271-.018.117-1.463,1.409-3.425,1.571-4.744.043-.351-.008-.22-.252-.253a34.4,34.4,0,0,0-3.725,0c-9.372-.066-18.752.046-28.127,0-1.881-.217-1.6-2.567.173-2.774,9.375-.041,18.755.069,28.127,0,1.6-.011,3.218.029,4.822-.024L65.6,21.876c-2.066-.189-4.16-.053-6.233-.089-1.206-.021-3.978.385-4.425-1.03a1.327,1.327,0,0,1,.963-1.737L66.613,19l2.967-9.14ZM70.1,27.321c.385.117,1.605.7,1.887.5l4.49-13.242c.106-.335-.041-.181-.214-.246-.536-.2-1.124-.317-1.663-.5-.953-.33-1.913-.662-2.861-1.013l-.165.145-4.4,13.2c.114.4,2.4.993,2.925,1.151M69.06,29.914a24.666,24.666,0,0,0-2.833-.853l-.251.279L62.313,40.033a20.72,20.72,0,0,0,2.94.949c.349.114,1.811.871,2.067.685l3.642-10.813c-.01-.434-1.431-.775-1.9-.939M62.311,45.3a8.464,8.464,0,0,0,.259,2.42L65.6,44.351c.062-.339-.053-.212-.217-.294a11.052,11.052,0,0,0-1.686-.482c-.465-.152-.949-.663-1.557-.519-.016.758.124,1.493.172,2.248" transform="translate(0 0.001)" fill="#20849e"/>
        <path id="Trazado_1311411" data-name="Trazado 1311411" d="M406.112,96.161c-.282.2-1.5-.386-1.887-.5" transform="translate(-334.126 -68.336)" fill="#20849e"/>
        <path id="Trazado_1311413" data-name="Trazado 1311413" d="M62.625,107.119c-.221.344.349,2.134-.979,2.393-2.378.463-1.535-1.927-1.836-2.393-.052-.08-1.392-.5-1.765-.744-1.382-.915-3.416-4.457-1.281-5.375,1.791-.77,1.757,1.536,2.23,2.352,1.089,1.877,5.231,1.38,4.61-1.321-.365-1.586-3.033-1.618-4.287-2.113a4.632,4.632,0,0,1-1.029-8.286c.354-.224,1.477-.571,1.522-.64.267-.412-.492-2.223,1.142-2.409,2.1-.239,1.342,1.685,1.729,2.267.08.12,1.214.5,1.536.713,1.324.869,2.879,3.842.936,4.682-2.141.925-1.435-2.237-3.02-2.6-3.076-.7-4.565,2.744-1.53,3.776,1.228.417,2.371.339,3.581,1.091,2.5,1.555,3.175,5.461.827,7.447a20.892,20.892,0,0,1-2.386,1.161" transform="translate(-46.154 -73.203)" fill="#20849e"/>
      </g>
    </g>
  </g>
</svg>
