<svg xmlns="http://www.w3.org/2000/svg" xmlns:xlink="http://www.w3.org/1999/xlink" width="124" height="124" viewBox="0 0 124 124">
  <defs>
    <clipPath id="clip-path">
      <rect id="Rectángulo_746240" data-name="Rectángulo 746240" width="61.068" height="80.532" fill="#20849e"/>
    </clipPath>
  </defs>
  <g id="Grupo_1229702" data-name="Grupo 1229702" transform="translate(-353.023 -8133)">
    <circle id="Elipse_13805" data-name="Elipse 13805" cx="62" cy="62" r="62" transform="translate(353.023 8133)" fill="#b8dcf3"/>
    <g id="Grupo_1229745" data-name="Grupo 1229745" transform="translate(386.387 8152.228)">
      <g id="Grupo_1229744" data-name="Grupo 1229744" clip-path="url(#clip-path)">
        <path id="Trazado_1311416" data-name="Trazado 1311416" d="M18.151,0c1.131.36.845,2.359-.078,2.359H12.5V22.648H38.078V2.359H22.309a4.248,4.248,0,0,1-.624-.631c-.341-.8.072-1.18.545-1.728H38.548a3.312,3.312,0,0,1,2.04,2.438V9.122h3.06a11.354,11.354,0,0,1,1.688.51,8.444,8.444,0,0,1,5.136,8.613c2.894.445,8.881-1.357,10.231,2.091a23.907,23.907,0,0,1,.274,6.313,1.179,1.179,0,0,1-2.348.012c-.094-.814.346-5.9-.546-5.9h-2.9V70.775h2.432c.624,0,1.095-.9,1.026-1.488l0-38.063a1.2,1.2,0,0,1,2.34.321l.008,38.363a3.524,3.524,0,0,1-1.459,2.627,6.816,6.816,0,0,1-1.442.6H47.492v3.224c0,1.778-2.513,4.143-4.317,4.166l-35.621.007a4.992,4.992,0,0,1-4.23-3.31C2.774,68.974,3.252,60.6,3.078,52.3L.107,46.082V30.2c.507-1.058,1.655-1.318,2.321-.2l.05,15.363c.634,2.156,2.045,4.1,2.955,6.16l0,24.061a2.587,2.587,0,0,0,2.589,2.6H42.556a2.573,2.573,0,0,0,2.581-2.6l.011-24.052,2.819-5.668,0-29.264c.1-2.228-2.625-5.1-4.792-5.1H40.588v5.19h2.589a4.008,4.008,0,0,1,1.8,1.181c1.165,1.577,1.093,6.625-1.525,7.119L6.9,24.884c-2.3-.555-2.343-4.931-1.6-6.544a3.558,3.558,0,0,1,2.1-1.669H9.992v-5.19H7.4a10.146,10.146,0,0,0-1.331.4C.666,13.934,2.983,21.4,2.426,25.839c-.434,1.142-1.8.948-2.32-.045.25-3.042-.335-6.618,0-9.594S3.769,9.122,6.932,9.122h3.06V2.281a6.33,6.33,0,0,1,.542-1.186A3.974,3.974,0,0,1,12.031,0ZM9.992,19.031l-2.51.157v3.224l.235.236H9.992Zm33.107.157-2.51-.157v3.618h2.275l.235-.236Zm9.728,1.573H50.473V45.846c0,1.359-2.981,5.583-2.981,6.134V70.775h5.335Z" transform="translate(0)" fill="#20849e"/>
        <path id="Trazado_1311417" data-name="Trazado 1311417" d="M54.987,169.672l28.683-.044a2.928,2.928,0,0,1,2.74,2.6c-.281,4.161.372,8.8.006,12.9a2.823,2.823,0,0,1-2.746,2.752H55.414a2.835,2.835,0,0,1-2.74-2.6c.341-4.138-.455-9.006,0-13.055a2.848,2.848,0,0,1,2.313-2.557m.465,2.353c-.423.15-.4.45-.433.824-.371,3.765.3,8.137,0,11.969l.32.623,28.291.046.346-.282v-12.9l-.274-.2Z" transform="translate(-44.252 -142.897)" fill="#20849e"/>
        <path id="Trazado_1311418" data-name="Trazado 1311418" d="M54.866,433.244l30.237-.026a2.516,2.516,0,0,1,1.741,1.558,13.739,13.739,0,0,1-.124,4.446,1.95,1.95,0,0,1-1.6,1.225l-30.276-.014A1.963,1.963,0,0,1,53.29,439c-.222-.862-.254-4.057.206-4.769a2.97,2.97,0,0,1,1.37-.986m29.7,2.323H55.536v2.516H84.563Z" transform="translate(-44.76 -364.949)" fill="#20849e"/>
        <path id="Trazado_1311419" data-name="Trazado 1311419" d="M116.393,373.266c-.975.968-4.859.975-5.836.059-1.012-.948-1-4.9-.076-5.907.7-.754,3.618-.662,4.632-.547a2.038,2.038,0,0,1,1.612,1.058,16.371,16.371,0,0,1,.185,4.36,2.5,2.5,0,0,1-.516.977m-1.83-4.036h-2.2v2.2h2.2Z" transform="translate(-92.49 -308.993)" fill="#20849e"/>
        <path id="Trazado_1311420" data-name="Trazado 1311420" d="M111.947,310.147c1.369-.18,4.006-.273,4.705,1.171a14.9,14.9,0,0,1,.178,4.2,2.26,2.26,0,0,1-1.124,1.547,20.349,20.349,0,0,1-4.265.109c-1.954-.3-1.806-3.281-1.656-4.785a2.179,2.179,0,0,1,2.161-2.238m2.544,2.472h-2.2v2.2h2.2Z" transform="translate(-92.418 -261.189)" fill="#20849e"/>
        <path id="Trazado_1311421" data-name="Trazado 1311421" d="M171.947,367.5c.789.8.761,2.734.688,3.807-.114,1.662-.543,2.529-2.3,2.725-1.452.162-4.446.254-4.758-1.64a23.439,23.439,0,0,1-.011-3.77,2.151,2.151,0,0,1,1.5-1.639,22.16,22.16,0,0,1,4.155.063,3.311,3.311,0,0,1,.725.453m-1.83,1.834h-2.2v2.2h2.2Z" transform="translate(-139.414 -309.093)" fill="#20849e"/>
        <path id="Trazado_1311422" data-name="Trazado 1311422" d="M166.091,310.845c.948-.946,4.855-.969,5.834-.056,1.1,1.023,1.18,5.888-.7,6.377a21.314,21.314,0,0,1-4.154.065,2.151,2.151,0,0,1-1.5-1.639,23.438,23.438,0,0,1,.011-3.77,2.506,2.506,0,0,1,.516-.977m4.026,1.834h-2.2v2.2h2.2Z" transform="translate(-139.414 -261.25)" fill="#20849e"/>
        <path id="Trazado_1311423" data-name="Trazado 1311423" d="M56.581,366.971a21.431,21.431,0,0,1,3.877-.026,2.065,2.065,0,0,1,1.658,1.955c.147,1.318.26,4.054-1.042,4.776-1.165.646-4.753.616-5.616-.619-.533-.763-.541-3.5-.393-4.461a2.157,2.157,0,0,1,1.516-1.626m3.181,2.323H57.408v2.2h2.354Z" transform="translate(-46.318 -309.057)" fill="#20849e"/>
        <path id="Trazado_1311424" data-name="Trazado 1311424" d="M221.865,366.971a21.431,21.431,0,0,1,3.877-.026A2.065,2.065,0,0,1,227.4,368.9c.147,1.318.261,4.054-1.042,4.776-1.165.646-4.753.616-5.616-.619-.533-.763-.541-3.5-.393-4.461a2.157,2.157,0,0,1,1.516-1.626m3.181,2.323h-2.354v2.2h2.354Z" transform="translate(-185.556 -309.057)" fill="#20849e"/>
        <path id="Trazado_1311425" data-name="Trazado 1311425" d="M57.258,310.048c1.887-.24,4.64-.344,4.9,2.078.134,1.256.258,3.872-.89,4.613-.721.465-3.448.456-4.37.345a2.064,2.064,0,0,1-1.8-1.809,20.043,20.043,0,0,1,.04-3.585,2.248,2.248,0,0,1,2.127-1.643M59.8,312.52H57.449v2.2H59.8Z" transform="translate(-46.359 -261.09)" fill="#20849e"/>
        <path id="Trazado_1311426" data-name="Trazado 1311426" d="M222.542,310.048c1.887-.24,4.64-.344,4.9,2.078.134,1.256.258,3.872-.89,4.613-.721.465-3.448.456-4.37.345a2.064,2.064,0,0,1-1.8-1.809,20.028,20.028,0,0,1,.039-3.585,2.249,2.249,0,0,1,2.127-1.643m2.545,2.472h-2.354v2.2h2.354Z" transform="translate(-185.597 -261.09)" fill="#20849e"/>
        <path id="Trazado_1311427" data-name="Trazado 1311427" d="M96.853,101.819l18.484-.037a1.187,1.187,0,0,1-.156,2.366H97.287c-1.338.03-1.665-2.046-.434-2.329" transform="translate(-80.944 -85.743)" fill="#20849e"/>
        <path id="Trazado_1311428" data-name="Trazado 1311428" d="M96.853,67.885l18.484-.037a1.187,1.187,0,0,1-.156,2.366H97.287c-1.338.03-1.665-2.046-.434-2.329" transform="translate(-80.944 -57.156)" fill="#20849e"/>
        <path id="Trazado_1311429" data-name="Trazado 1311429" d="M96.853,33.952l18.484-.037a1.187,1.187,0,0,1-.156,2.366H97.287c-1.338.03-1.665-2.046-.434-2.329" transform="translate(-80.944 -28.571)" fill="#20849e"/>
      </g>
    </g>
  </g>
</svg>
