<svg id="responder" xmlns="http://www.w3.org/2000/svg" width="63.5" height="63.5" viewBox="0 0 63.5 63.5">
  <path id="Trazado_1093995" data-name="Trazado 1093995" d="M18,13.75a.75.75,0,0,0,.75-.75,2.251,2.251,0,1,1,2.819,2.178,1.705,1.705,0,0,0-1.319,1.646V18a.75.75,0,0,0,1.5,0V16.823c0-.112.125-.175.2-.194A3.75,3.75,0,1,0,17.25,13a.75.75,0,0,0,.75.75Z" transform="translate(-0.25 -0.25)" fill="#20849e"/>
  <circle id="Elipse_13738" data-name="Elipse 13738" cx="1" cy="1" r="1" transform="translate(19.75 19.75)" fill="#20849e"/>
  <path id="Trazado_1093996" data-name="Trazado 1093996" d="M13,26.75h6.19l3.78,3.78A.75.75,0,0,0,24.25,30V26.75h4V29A2.753,2.753,0,0,0,31,31.75h4.25V35a.75.75,0,0,0,1.28.53l3.78-3.78H51A2.753,2.753,0,0,0,53.75,29V13A2.753,2.753,0,0,0,51,10.25H31.75V8A2.753,2.753,0,0,0,29,5.25H13A2.753,2.753,0,0,0,10.25,8V24A2.753,2.753,0,0,0,13,26.75ZM52.25,13V29A1.251,1.251,0,0,1,51,30.25H40a.751.751,0,0,0-.53.22l-2.72,2.72V31a.75.75,0,0,0-.75-.75H31A1.251,1.251,0,0,1,29.75,29V13A1.251,1.251,0,0,1,31,11.75H51A1.251,1.251,0,0,1,52.25,13ZM11.75,8A1.251,1.251,0,0,1,13,6.75H29A1.251,1.251,0,0,1,30.25,8v2.367a2.745,2.745,0,0,0-2,2.633V25.25H23.5a.75.75,0,0,0-.75.75v2.19l-2.72-2.72a.751.751,0,0,0-.53-.22H13A1.251,1.251,0,0,1,11.75,24Z" transform="translate(-0.25 -0.25)" fill="#20849e"/>
  <path id="Trazado_1093997" data-name="Trazado 1093997" d="M34.5,15.75h6a.75.75,0,0,0,0-1.5h-6a.75.75,0,0,0,0,1.5Z" transform="translate(-0.25 -0.25)" fill="#20849e"/>
  <path id="Trazado_1093998" data-name="Trazado 1093998" d="M34.5,19.75h13a.75.75,0,0,0,0-1.5h-13a.75.75,0,0,0,0,1.5Z" transform="translate(-0.25 -0.25)" fill="#20849e"/>
  <path id="Trazado_1093999" data-name="Trazado 1093999" d="M34.5,23.75h13a.75.75,0,0,0,0-1.5h-13a.75.75,0,0,0,0,1.5Z" transform="translate(-0.25 -0.25)" fill="#20849e"/>
  <path id="Trazado_1094000" data-name="Trazado 1094000" d="M47.5,26.25h-7a.75.75,0,0,0,0,1.5h7a.75.75,0,0,0,0-1.5Z" transform="translate(-0.25 -0.25)" fill="#20849e"/>
  <path id="Trazado_1094001" data-name="Trazado 1094001" d="M10,43.75h2a.75.75,0,0,0,0-1.5H10a.75.75,0,0,0,0,1.5Z" transform="translate(-0.25 -0.25)" fill="#20849e"/>
  <path id="Trazado_1094002" data-name="Trazado 1094002" d="M16,43.75h2a.75.75,0,0,0,0-1.5H16a.75.75,0,0,0,0,1.5Z" transform="translate(-0.25 -0.25)" fill="#20849e"/>
  <path id="Trazado_1094003" data-name="Trazado 1094003" d="M22,43.75h2a.75.75,0,0,0,0-1.5H22a.75.75,0,0,0,0,1.5Z" transform="translate(-0.25 -0.25)" fill="#20849e"/>
  <path id="Trazado_1094004" data-name="Trazado 1094004" d="M28,43.75h2a.75.75,0,0,0,0-1.5H28a.75.75,0,0,0,0,1.5Z" transform="translate(-0.25 -0.25)" fill="#20849e"/>
  <path id="Trazado_1094005" data-name="Trazado 1094005" d="M34,43.75h2a.75.75,0,0,0,0-1.5H34a.75.75,0,0,0,0,1.5Z" transform="translate(-0.25 -0.25)" fill="#20849e"/>
  <path id="Trazado_1094006" data-name="Trazado 1094006" d="M40,43.75h2a.75.75,0,0,0,0-1.5H40a.75.75,0,0,0,0,1.5Z" transform="translate(-0.25 -0.25)" fill="#20849e"/>
  <path id="Trazado_1094007" data-name="Trazado 1094007" d="M46,43.75h2a.75.75,0,0,0,0-1.5H46a.75.75,0,0,0,0,1.5Z" transform="translate(-0.25 -0.25)" fill="#20849e"/>
  <path id="Trazado_1094008" data-name="Trazado 1094008" d="M52,43.75h2a.75.75,0,0,0,0-1.5H52a.75.75,0,0,0,0,1.5Z" transform="translate(-0.25 -0.25)" fill="#20849e"/>
  <path id="Trazado_1094009" data-name="Trazado 1094009" d="M40,46.25H24a.75.75,0,0,0,0,1.5H40a.75.75,0,0,0,0-1.5Z" transform="translate(-0.25 -0.25)" fill="#20849e"/>
  <path id="Trazado_1094010" data-name="Trazado 1094010" d="M63.711,50.763,59.75,38.878V3A2.753,2.753,0,0,0,57,.25H7A2.753,2.753,0,0,0,4.25,3V38.878L.289,50.763A1.427,1.427,0,0,0,.25,51v5A2.753,2.753,0,0,0,3,58.75H4.717a19.714,19.714,0,0,0,1.612,4.585A.749.749,0,0,0,7,63.75H22a.751.751,0,0,0,.651-.378l2.641-4.622H38.707l2.641,4.622A.751.751,0,0,0,42,63.75H57a.749.749,0,0,0,.671-.415,19.724,19.724,0,0,0,1.611-4.584H61A2.753,2.753,0,0,0,63.75,56V51a1.445,1.445,0,0,0-.039-.237ZM7,1.75H57A1.251,1.251,0,0,1,58.25,3V38.25H5.75V3A1.251,1.251,0,0,1,7,1.75Zm-1.46,38H58.46l3.5,10.5H59.09a2.67,2.67,0,0,0-1.633-.963,2.758,2.758,0,0,0-1.707.267V49A2.753,2.753,0,0,0,53,46.25a2.715,2.715,0,0,0-1.292.337,2.738,2.738,0,0,0-5.416,0,2.565,2.565,0,0,0-.835-.3A2.751,2.751,0,0,0,42.25,49v1.25H21.75V49a2.751,2.751,0,0,0-3.207-2.713,2.562,2.562,0,0,0-.835.3,2.738,2.738,0,0,0-5.416,0A2.715,2.715,0,0,0,11,46.25,2.753,2.753,0,0,0,8.25,49v.555a2.76,2.76,0,0,0-1.706-.268,2.67,2.67,0,0,0-1.634.963H2.04ZM38.29,54.407a2.876,2.876,0,0,0-.406,2.843H26.114a2.894,2.894,0,0,0-4.364-3.424V51.75h4.787l1.792,3.585A.749.749,0,0,0,29,55.75h6a.749.749,0,0,0,.671-.415l1.792-3.585H42.25v2.076a2.9,2.9,0,0,0-3.959.581ZM28.213,51.75h7.573l-1.25,2.5H29.463ZM3,57.25A1.251,1.251,0,0,1,1.75,56V51.75H4.281a2.915,2.915,0,0,0-.031.357v2.422a19.578,19.578,0,0,0,.2,2.721Zm18.565,5H7.47a18.287,18.287,0,0,1-1.72-7.72V52.107a1.321,1.321,0,0,1,1.035-1.34A1.251,1.251,0,0,1,8.25,52v1a.75.75,0,1,0,1.5,0V49a1.25,1.25,0,0,1,2.5,0v4a.75.75,0,1,0,1.5,0V47a1.25,1.25,0,0,1,2.5,0v6a.75.75,0,1,0,1.5,0V49.107a1.321,1.321,0,0,1,1.035-1.34A1.251,1.251,0,0,1,20.25,49v7a.75.75,0,0,0,1.38.407l.631-.978a1.391,1.391,0,0,1,2.375,1.444Zm34.965,0H42.435l-3.072-5.376a1.386,1.386,0,0,1,.11-1.545,1.408,1.408,0,0,1,1.159-.534,1.374,1.374,0,0,1,1.106.635l.631.978A.75.75,0,0,0,43.75,56V49a1.251,1.251,0,0,1,1.465-1.232,1.321,1.321,0,0,1,1.035,1.34V53a.75.75,0,1,0,1.5,0V47a1.25,1.25,0,0,1,2.5,0v6a.75.75,0,1,0,1.5,0V49a1.25,1.25,0,0,1,2.5,0v4a.75.75,0,1,0,1.5,0V52a1.251,1.251,0,0,1,1.465-1.232,1.321,1.321,0,0,1,1.035,1.34V54.53a18.3,18.3,0,0,1-1.72,7.72ZM62.25,56A1.251,1.251,0,0,1,61,57.25H59.551a19.577,19.577,0,0,0,.2-2.721V52.107a2.916,2.916,0,0,0-.031-.357H62.25Z" transform="translate(-0.25 -0.25)" fill="#20849e"/>
</svg>
