<svg xmlns="http://www.w3.org/2000/svg" xmlns:xlink="http://www.w3.org/1999/xlink" width="1228" height="217.361" viewBox="0 0 1228 217.361">
  <defs>
    <clipPath id="clip-path">
      <rect id="Rectángulo_456721" data-name="Rectángulo 456721" width="83.726" height="216.36" rx="23" fill="#f7faef" stroke="#707070" stroke-width="1"/>
    </clipPath>
    <clipPath id="clip-path-2">
      <rect id="Rectángulo_456656" data-name="Rectángulo 456656" width="126.112" height="410.451" transform="translate(0 0)" fill="#b3c867"/>
    </clipPath>
  </defs>
  <g id="Grupo_1235706" data-name="Grupo 1235706" transform="translate(-1017.833 -557.85)">
    <rect id="Rectángulo_456720" data-name="Rectángulo 456720" width="1228" height="216.361" rx="24" transform="translate(1017.833 558.85)" fill="#f7faef"/>
    <g id="Enmascarar_grupo_1119278" data-name="Enmascarar grupo 1119278" transform="translate(2157.833 557.85)" clip-path="url(#clip-path)">
      <g id="Grupo_1186682" data-name="Grupo 1186682" transform="translate(9.733 -25.456)" opacity="0.23" style="isolation: isolate">
        <g id="Grupo_1186558" data-name="Grupo 1186558" transform="translate(0 0)" clip-path="url(#clip-path-2)">
          <path id="Trazado_1085386" data-name="Trazado 1085386" d="M122.8,303.606s-2.971,11.639-2.409,17.459,3.854,4.968,4.095,7.239-5.379,1.419-5.861,5.394,10.444,53.438.251,66.607-79.584,13.515-84.093,1.039-2.744-63.763,20.974-51.634,20.778,37.772,40.38,32.228,22.572-19.994,18.257-30.284,3.312-18.452,2.609-21.824-6.423.355-10.839.887,2.308,24.308-3.111,35.308-23.485,9.4-29.105-10.113-16.761-6.032-16.66-19.34,16.158-24.84,23.786-1.419,18.969,26.792,19.771,11,1.3-16.146,1.3-16.146-28.4-4.081-34.826-15.791S60.4,297.183,61.2,278.553s1.1-36.2-5.319-39.921-16.641-2.448-34.1-2.093S-.1,223.587,0,204.6s3.914-28.536,9.033-27.575,1.606,26.851,8.029,37.593S35.53,217.2,46.971,224.3s13.75,16.323,13.75,16.323.8-20.049-12.044-23.775S24.089,212.232,19.472,199.1s-4.717-20.4-4.617-38.324.5-14.9.5-34.421-.8-44,5.921-49.857c0,0-1.606-31.937,7.326-50.567s39.944-14.017,47.07,3.549-6.323,38.856-26.5,28.566-25.693,2.661-26.195,9.758-.5,7.275-.5,7.275,10.237-8.516,27.2-5.5,26.5-4.968,30.711-18.1a151.9,151.9,0,0,0,5.62-27.515s-9.4.293-11.712-5.157S75.688,2.1,79.233,9.091c0,0-1.644-8.721,3.391-9.084s3.905,8.63,3.905,8.63S91.514-2.809,94.854,1.1s.976,9.9.976,9.9,6.423-.818,6.886,8.176-6.526,12.99-14.182,6.268c0,0,.888,28.835-11.8,40.474S50.481,72.3,50.963,75.994s5.781,2.981,10.679,8.091,15.175,1.561,20.875-12.917,9.123-25.94,21.919-34.589,19.445-24.84,21.327,2.661S122.627,104.888,93.4,98.235s-35.127-1.552-39.643-12.2-5.445-9.98-9.559-9.98-18.868-4.968-22.782,8.516-2.836,42.912-3.338,64.2.376,42.755,5.645,52.205,16.058,7.9,22.456,9.45a29.457,29.457,0,0,1,11.04,5.545s-2.353-12.313-12.149-11.036-21.272-14.017-22.056-33.977-4.548-75.683,6.116-78.178,7.684,29.941,7.684,59.05,13.8,21.347,20.7,38.535,1.611,28.4,1.611,28.4,5.1,4.866,4.471,23.939-1,40.586.125,52.563,4.391,17.521,16.936,23.509,21.7,5.1,27.349,5.1,11.542.222,11.542.222-2.509.665-3.011-9.98-12.42-10.867-29.356-7.541-26.847-27.057-18.692-37.259,45.289-2.661,52.314,8.871,2.005,25.413,2.005,25.413" transform="translate(0 0.004)" fill="#b3c867" fill-rule="evenodd"/>
        </g>
      </g>
    </g>
  </g>
</svg>
