<svg xmlns="http://www.w3.org/2000/svg" xmlns:xlink="http://www.w3.org/1999/xlink" width="1228" height="183.633" viewBox="0 0 1228 183.633">
  <defs>
    <clipPath id="clip-path">
      <rect id="Rectángulo_456721" data-name="Rectángulo 456721" width="135" height="183.633" rx="23" fill="#f8fcfe" stroke="#707070" stroke-width="1"/>
    </clipPath>
    <clipPath id="clip-path-2">
      <rect id="Rectángulo_456656" data-name="Rectángulo 456656" width="203.345" height="366.442" transform="translate(0 0)" fill="#b8dcf3"/>
    </clipPath>
  </defs>
  <g id="Grupo_1189058" data-name="Grupo 1189058" transform="translate(1413.833 668.266) rotate(180)">
    <rect id="Rectángulo_456720" data-name="Rectángulo 456720" width="1228" height="179.633" rx="24" transform="translate(185.833 484.633)" fill="#f8fcfe"/>
    <g id="Enmascarar_grupo_1119278" data-name="Enmascarar grupo 1119278" transform="translate(1278.833 484.633)" clip-path="url(#clip-path)">
      <g id="Grupo_1186682" data-name="Grupo 1186682" transform="translate(51.167 -38.938)" opacity="0.23" style="isolation: isolate">
        <g id="Grupo_1186558" data-name="Grupo 1186558" transform="translate(0 0)" clip-path="url(#clip-path-2)">
          <path id="Trazado_1085386" data-name="Trazado 1085386" d="M198.008,271.052s-4.79,10.391-3.884,15.587,6.214,4.435,6.6,6.463-8.674,1.267-9.451,4.815,16.839,47.708.4,59.465-128.322,12.066-135.592.928-4.425-56.926,33.819-46.1,33.5,33.722,65.109,28.772,36.4-17.85,29.437-27.037,5.34-16.474,4.207-19.484-10.357.317-17.477.792,3.722,21.7-5.017,31.522-37.867,8.4-46.929-9.029-27.025-5.386-26.863-17.266,26.054-22.176,38.353-1.267,30.585,23.919,31.88,9.821,2.1-14.415,2.1-14.415-45.8-3.643-56.153-14.1-11.166-15.207-9.871-31.839,1.78-32.314-8.577-35.64-26.833-2.185-54.99-1.869S-.159,199.613,0,182.664s6.311-25.477,14.564-24.619,2.589,23.972,12.946,33.562,29.776,2.3,48.224,8.639,22.17,14.573,22.17,14.573,1.295-17.9-19.419-21.226-39.647-4.118-47.091-15.84-7.606-18.216-7.444-34.215.809-13.306.809-30.73S23.467,73.525,34.31,68.3c0,0-2.589-28.513,11.813-45.145s64.406-12.514,75.9,3.168-10.2,34.69-42.722,25.5S37.87,54.2,37.061,60.535s-.809,6.495-.809,6.495,16.506-7.6,43.855-4.911,42.722-4.435,49.518-16.157A84.693,84.693,0,0,0,138.687,21.4s-15.156.262-18.884-4.6,2.237-14.923,7.954-8.678c0,0-2.651-7.786,5.468-8.11s6.3,7.7,6.3,7.7S147.559-2.509,152.944.979s1.574,8.84,1.574,8.84,10.357-.73,11.1,7.3-10.522,11.6-22.868,5.6c0,0,1.431,25.743-19.024,36.134s-42.333,5.7-41.557,9,9.321,2.661,17.218,7.223,24.468,1.394,33.66-11.532,14.71-23.159,35.343-30.881,31.354-22.176,34.388,2.376S197.724,93.641,150.593,87.7s-56.639-1.386-63.921-10.89S77.893,67.9,71.258,67.9s-30.423-4.435-36.734,7.6-4.573,38.31-5.383,57.319.607,38.171,9.1,46.608,25.892,7.051,36.208,8.437a66.082,66.082,0,0,1,17.8,4.95s-3.795-10.993-19.589-9.853-34.3-12.514-35.563-30.334-7.333-67.569,9.861-69.8,12.39,26.73,12.39,52.718,22.251,19.058,33.376,34.4,2.6,25.354,2.6,25.354,8.22,4.344,7.208,21.372-1.618,36.235.2,46.927,7.08,15.642,27.308,20.988,34.995,4.554,44.1,4.554,18.61.2,18.61.2-4.046.594-4.855-8.91-20.026-9.7-47.334-6.732-43.288-24.156-30.14-33.264,73.024-2.376,84.351,7.92,3.233,22.689,3.233,22.689" transform="translate(0 0.004)" fill="#b8dcf3" fill-rule="evenodd"/>
        </g>
      </g>
    </g>
  </g>
</svg>
