<svg xmlns="http://www.w3.org/2000/svg" xmlns:xlink="http://www.w3.org/1999/xlink" width="188" height="78" viewBox="0 0 188 78">
  <defs>
    <clipPath id="clip-path">
      <rect id="Rectángulo_746013" data-name="Rectángulo 746013" width="188" height="78" rx="20" fill="#f6f8fe"/>
    </clipPath>
    <clipPath id="clip-path-2">
      <rect id="Rectángulo_746011" data-name="Rectángulo 746011" width="74.944" height="68.559" transform="translate(0 0)" fill="#b8dcf3"/>
    </clipPath>
    <clipPath id="clip-path-3">
      <rect id="Rectángulo_746012" data-name="Rectángulo 746012" width="118.657" height="81.027" transform="translate(0 0)" fill="#e3f1fa"/>
    </clipPath>
  </defs>
  <g id="Enmascarar_grupo_1119499" data-name="Enmascarar grupo 1119499" clip-path="url(#clip-path)">
    <rect id="Rectángulo_746010" data-name="Rectángulo 746010" width="345.819" height="227.252" rx="20" transform="translate(-14.974 -11.085)" fill="#f4ece4"/>
    <g id="Grupo_1229252" data-name="Grupo 1229252" transform="translate(-31.932 -6.509)" opacity="0.38" style="mix-blend-mode: multiply;isolation: isolate">
      <g id="Grupo_1229251" data-name="Grupo 1229251" transform="translate(0 0)" clip-path="url(#clip-path-2)">
        <path id="Trazado_1310589" data-name="Trazado 1310589" d="M66.182,43.983c-8.058,2.371-5.946,13.218-.626,16.043s4.966,4.511.76,4.64-4.446,1.085-5.208,1.059.478-7.549-1.4-12.141c-1.536-3.756-1.606-6.972-6.937-8.211.043-.044.083-.088.12-.129,1.737-1.937,1.738-2.745,7.43-2.859s11.09-.757,13.027-5.714,2.288-10.141.059-10.292S56.038,41.895,55.041,42.273s.822-3.859,2.054-5.07,4.093-2.762,7.76-5.884,11.882-13.953,7.7-18.021S58.914,19.021,58.84,25.359,56.7,37.178,56.141,37.3s1.08-7.689.422-10.988-1.08-9.535.563-9.5,4.835-.515,4.788-1.7a.992.992,0,0,0-.161-.494C67.7,12.478,74.771,5.106,74.3,3.169,73.8,1.11,71.42,2,68.792,1.474S64.035.465,64.035,3.209,61.782,11.523,59.9,11.2s.563-5.287.376-8.032S58.214-.3,56.774.1s-4.632-.363-6.76.323-1.127,6.094.063,8.377-2.5,1.754-2.942-1.677S45.6,1.065,43.881,1.478s-2.151-.912-5.843.137-2.316,3.713.751,7.87C41.162,12.7,45.956,14.5,48,15.146c-.406.119-.711.308-.739.6-.09.949,2.7.611,2.7.611s4.46-.45,4.882,1.44-.008,18.992-.008,18.992-1.526-.933-1.807-5.655-.7-9.687-4.929-12.078-3,7.477-.516,11.715,3,4.42,5.445,5.873,1.6,4.541-.845,7.386c-.315.368-.651.717-1,1.053-.834-.114-1.77-.192-2.823-.23-7.313-.264-15.85.374-21.589.439a2.538,2.538,0,0,1,2.045-1.753c2.564-.542,6.642-.356,13.612-.3s8.733-1.886,8.692-4.65-1.562-4.155-3.605-4.015-.641,3.909-3.2,5.473-7.371.376-11.937,1.409-5.488,2.376-5.488,2.376-.32-2.919,4.807-3.461,9.814-.672,11.657-2.583,1.883-2.971,1.843-5.579S45,30.039,45,27.2s.32-6.406-2.363-7.259c0,0,.641-4.65-2.924-7.362s-15.943-2.041-18.787.517,2.524,5.657,10.575,4.159,10.255.387,10.455,1.421.2,1.059.2,1.059a33.425,33.425,0,0,0-10.856-.8c-6.77.439-10.575-.723-12.258-2.635A11.121,11.121,0,0,1,16.8,12.291s3.752.043,4.675-.751a.771.771,0,0,0,.286-.635c7.908-1.057,10.162-4.612,11.021-6.347.921-1.86-1.162-1.937-2.484-2.531s-2.6,0-4.336-.62-3.155,1.6-3.436,3.642S21.561,8.51,20.6,8.278s-.6-1.808-.2-5.3S17.315.038,15.793.348,11.266-.686,10.505,1.691s2.123,6.9,1.082,7.31-2.8-2.3-3.124-3.926S6.62,3.551,5.658,3.757s-1.682-.232-3.124.077-1.042,4.572,1.282,6.69c1.67,1.523,4.779,1.622,6.395,1.557.493.949,2.936,1.27,5.579.423,0,0-.354,4.2,4.709,5.892s10.479.93,10.287,1.467-2.307.434-4.262,1.178a9.424,9.424,0,0,1-8.332-1.88c-2.275-2.108-3.641-3.776-8.749-5.036S1.681,10.511.93,14.514,2.182,24.072,13.849,23.1s14.02-.226,15.823-1.776,2.173-1.453,3.815-1.453,7.531-.723,9.093,1.24,1.132,6.247,1.332,9.347-.15,6.225-2.253,7.6-6.409,1.15-8.963,1.376a23.053,23.053,0,0,0-4.406.807s.939-1.793,4.849-1.607,8.49-2.041,8.8-4.947S43.757,22.673,39.5,22.31s-3.067,4.359-3.067,8.6-5.508,3.108-8.262,5.61-.643,4.135-.643,4.135a3.139,3.139,0,0,0-1.784,3.485c.035.383.067.773.1,1.166a28.239,28.239,0,0,1-3.765-.192c-4.538-.656-5.074-6.877-4.433-7.523s4.166.646,5.488-.207a.992.992,0,0,0,.546-1.015c5.147-.991,9.519-4.191,10.6-5.566,1.282-1.627.881-2.764-.32-3.952s-2-.387-3.725-1.266-4.246-.672-4.276,2.118-1.933,4.7-3.054,4.856-1.522-.517-.521-2.764.481-4.83-.481-5.192a9.971,9.971,0,0,0-4.807-.258c-1.883.362-.681-.077-3.365.129s-2.484,1.808-2.363,4.081,2.163,4.133.721,4.185S10.246,28.112,9.2,27.208a3.876,3.876,0,0,0-3.565-.646c-.881.336-1.2,0-2.684.568S1.794,31,5.839,33.588a18.478,18.478,0,0,0,5.914,2.559.659.659,0,0,0-.078.69c.441,1.24,4.887.021,4.927,1.224s-.152,4,1.258,5.654,3.108,1.405,2.948,1.88-5.832-.289-7.659-1.405-4.2-10.61-10.008-9.8-2.6,11.075,1.9,12.463,14.972-.872,18.126-.646c.7.05,1.633.059,2.735.039a20.478,20.478,0,0,1-.21,5.544c-.451,1.744-1.753,2.551-6.76,3.423a56.408,56.408,0,0,1-10.916.743c-1.99,0-4.057.025-4.514.031a.588.588,0,0,1-.093,0h.093c.253-.02.946-.191,1.109-1.452.2-1.55,4.957-1.582,11.717-1.1s10.715-3.939,7.461-5.425S5.716,47.624,2.912,49.3s-.8,3.7-.8,3.7S3.3,54.7,3.073,55.544s-1.538.723-1.634,1.054,2.147.207,2.339.785-4.168,7.78-.1,9.7,31.764,1.968,33.564.151,1.1-9.283-8.371-7.517-8.293,5.5-16.117,4.692S3.744,61.5,5.467,60,4.145,57.311,4.425,56.82s2.564.052,4.326.129-.921,3.539,1.242,5.14,9.373,1.369,11.617-1.472,6.69-.878,6.65-2.816-6.449-3.616-9.494-.207-7.571,3.9-7.891,1.6-.521-2.351-.521-2.351,11.336-.594,13.9-2.3,2.764-2.48,2.444-5.192a14.175,14.175,0,0,1-.122-3.125c3.849-.1,9.445-.489,14.771-.7a51.984,51.984,0,0,1,9.169.171c-2.248,1.951-4.964,3.443-7.153,5.237a6.423,6.423,0,0,0-2.855,5.318c-1.136-.475-3.191-1.71-2.266-4.216,1.252-3.39,6.81-3.261,6.359-4.52s-9.964-1.744-13.069,1.711-1.452,7.878,3.805,7.685a34.241,34.241,0,0,1,5.126.058c-.027.564-.043,1.19-.058,1.9-.094,4.3-.422,8.779.892,8.93s.657-2.3.657-4.51-.422-8.476.7-9.838c1-1.207,6.9-5.195,9.438-7.435a6.918,6.918,0,0,1,4.572,3.1c2.253,3.875,2.225,5.193,2.239,6.471,0,0,1.2,10.429,1,10.881s-3.355-.291-3.3-4.165-.651-13.077-3.655-13.206-9.313,3.1-7.361,8.653,6.459,3,7.711,6.555,5.891,2.458,6.4,3.07,1.256.661,1.154-.182,2.249-1.886,4.6-.788,6.009,2.292,7.661-.517,1.121-24.273-6.937-21.9" transform="translate(0 0.002)" fill="#b8dcf3" fill-rule="evenodd"/>
      </g>
    </g>
    <g id="Grupo_1229254" data-name="Grupo 1229254" transform="translate(153.355 192.41)" opacity="0.38" style="mix-blend-mode: multiply;isolation: isolate">
      <g id="Grupo_1229253" data-name="Grupo 1229253" transform="translate(0 0)" clip-path="url(#clip-path-3)">
        <path id="Trazado_1310590" data-name="Trazado 1310590" d="M104.785,51.982c-12.759,2.8-9.414,15.622-.991,18.961s7.862,5.331,1.2,5.484-7.04,1.282-8.245,1.252.756-8.922-2.217-14.348c-2.432-4.439-2.543-8.24-10.983-9.7.067-.053.131-.1.19-.153,2.75-2.29,2.752-3.245,11.764-3.379s17.559-.894,20.625-6.753,3.623-11.985.093-12.164-27.5,18.335-29.079,18.782,1.3-4.561,3.252-5.992,6.48-3.265,12.287-6.954,18.813-16.49,12.194-21.3-21.6,6.764-21.716,14.254-3.382,13.968-4.274,14.111S90.6,35,89.556,31.1s-1.709-11.269.892-11.233,7.655-.608,7.581-2a.985.985,0,0,0-.255-.583c9.416-2.528,20.61-11.24,19.863-13.53-.793-2.433-4.559-1.383-8.721-2s-7.531-1.193-7.531,2.051-3.567,9.826-6.54,9.445.892-6.249.595-9.492S92.169-.357,89.89.12,82.557-.309,79.187.5s-1.784,7.2.1,9.9-3.964,2.073-4.658-1.982S72.2,1.259,69.476,1.748s-3.4-1.078-9.252.162-3.667,4.388,1.189,9.3c3.758,3.8,11.348,5.924,14.589,6.69-.643.141-1.126.364-1.171.715-.143,1.122,4.279.722,4.279.722s7.061-.532,7.73,1.7-.013,22.446-.013,22.446-2.416-1.1-2.861-6.683-1.115-11.448-7.8-14.274-4.757,8.837-.818,13.845,4.757,5.223,8.622,6.94,2.527,5.366-1.338,8.729c-.5.434-1.03.848-1.584,1.245-1.321-.135-2.8-.227-4.469-.272-11.578-.312-25.1.443-34.182.519a3.845,3.845,0,0,1,3.238-2.072c4.059-.641,10.516-.421,21.552-.36s13.826-2.229,13.763-5.5-2.473-4.91-5.708-4.745-1.015,4.62-5.074,6.468-11.67.444-18.9,1.665S42.575,51.8,42.575,51.8s-.507-3.45,7.611-4.091,15.539-.794,18.456-3.053,2.981-3.511,2.917-6.594-.317-2.564-.317-5.922.507-7.571-3.742-8.578a8.593,8.593,0,0,0-4.63-8.7c-5.645-3.205-25.242-2.412-29.745.611s4,6.686,16.744,4.915,16.236.458,16.553,1.679.317,1.252.317,1.252-6.469-1.465-17.187-.946-16.744-.855-19.407-3.114a12.469,12.469,0,0,1-3.552-4.734s5.94.051,7.4-.887a.832.832,0,0,0,.453-.75c12.52-1.249,16.089-5.451,17.45-7.5,1.459-2.2-1.839-2.29-3.932-2.992s-4.122,0-6.865-.733-5,1.893-5.439,4.3-1.522,4.091-3.044,3.816-.951-2.137-.317-6.258S27.415.045,25,.411,17.838-.81,16.633,2s3.361,8.151,1.712,8.639S13.906,7.921,13.4,6s-2.917-1.8-4.44-1.557-2.664-.275-4.947.092-1.649,5.4,2.03,7.907c2.645,1.8,7.567,1.917,10.125,1.84.781,1.121,4.648,1.5,8.832.5,0,0-.561,4.961,7.456,6.964s16.591,1.1,16.287,1.734-3.653.513-6.748,1.392S32.4,25.139,28.8,22.648,23.036,18.185,14.95,16.7s-12.288-4.274-13.477.458S3.454,28.45,21.926,27.3s22.2-.267,25.052-2.1,3.441-1.717,6.041-1.717,11.923-.855,14.4,1.465S69.208,32.338,69.525,36s-.238,7.356-3.567,8.983S55.81,46.342,51.767,46.61a47.63,47.63,0,0,0-6.976.954s1.487-2.119,7.677-1.9,13.442-2.412,13.938-5.846S69.28,26.8,62.541,26.367s-4.856,5.152-4.856,10.16S48.965,40.2,44.6,43.158s-1.018,4.886-1.018,4.886a3.8,3.8,0,0,0-2.825,4.119c.055.453.106.914.153,1.377-2.414,0-4.448-.064-5.961-.227-7.185-.775-8.033-8.128-7.018-8.891s6.6.763,8.689-.244c.731-.352.974-.808.865-1.2,8.15-1.171,15.071-4.953,16.786-6.578,2.03-1.923,1.4-3.267-.507-4.671s-3.171-.458-5.9-1.5-6.723-.794-6.771,2.5a6.193,6.193,0,0,1-4.836,5.739c-1.776.183-2.41-.611-.824-3.267s.761-5.709-.761-6.136a20.953,20.953,0,0,0-7.611-.305c-2.981.427-1.078-.092-5.328.153S17.807,31.057,18,33.743s3.425,4.885,1.142,4.946-2.917-5.465-4.566-6.533a7.867,7.867,0,0,0-5.645-.763c-1.4.4-1.9,0-4.249.672S2.84,36.644,9.245,39.7a35.267,35.267,0,0,0,9.364,3.024.626.626,0,0,0-.124.816c.7,1.465,7.738.024,7.8,1.447s-.241,4.729,1.991,6.683,4.922,1.661,4.668,2.222-9.234-.342-12.126-1.661S14.169,39.688,4.973,40.642.851,53.731,7.986,55.372s23.7-1.03,28.7-.763c1.112.059,2.586.07,4.331.046a18.171,18.171,0,0,1-.333,6.552c-.714,2.061-2.775,3.015-10.7,4.045A119.218,119.218,0,0,1,12.7,66.13c-3.15,0-6.424.03-7.146.037a1.244,1.244,0,0,1-.147,0h.147a1.858,1.858,0,0,0,1.755-1.716c.317-1.832,7.848-1.87,18.551-1.3S42.823,58.5,37.669,56.742,9.05,56.284,4.611,58.269s-1.267,4.373-1.267,4.373,1.877,2,1.522,3S2.43,66.5,2.278,66.891s3.4.244,3.7.928-6.6,9.195-.158,11.46,50.292,2.325,53.141.179S60.7,68.487,45.71,70.574s-13.13,6.5-25.518,5.545S5.928,72.679,8.656,70.908s-2.093-3.175-1.649-3.755,4.059.061,6.85.153-1.459,4.182,1.966,6.075S30.663,75,34.215,71.641,44.806,70.6,44.743,68.313s-10.211-4.274-15.031-.244-11.987,4.61-12.494,1.893-.824-2.778-.824-2.778,17.949-.7,22.008-2.717,4.376-2.931,3.869-6.136a12.557,12.557,0,0,1-.194-3.693c6.094-.12,14.953-.578,23.387-.83a110.137,110.137,0,0,1,14.517.2C76.42,56.316,72.12,58.079,68.655,60.2c-3.345,2.047-4.225,3.469-4.52,6.285-1.8-.561-5.053-2.021-3.588-4.982,1.982-4.007,10.782-3.854,10.068-5.342S54.839,54.1,49.923,58.182s-2.3,9.311,6.025,9.082a72.564,72.564,0,0,1,8.116.068c-.043.666-.067,1.407-.092,2.24-.149,5.08-.669,10.375,1.412,10.554s1.041-2.719,1.041-5.331-.669-10.017,1.115-11.627c1.581-1.427,10.922-6.139,14.943-8.787,3.243.621,5.738,1.737,7.238,3.662,3.568,4.579,3.522,6.137,3.545,7.648,0,0,1.9,12.326,1.586,12.86s-5.312-.343-5.232-4.923-1.031-15.455-5.787-15.608S69.086,61.685,72.178,68.248,82.405,71.8,84.387,75.995s9.328,2.905,10.139,3.628,1.989.781,1.827-.215,3.561-2.229,7.287-.931,9.513,2.709,12.13-.611,1.775-28.687-10.984-25.885" transform="translate(0 0.002)" fill="#e3f1fa" fill-rule="evenodd"/>
      </g>
    </g>
  </g>
</svg>
